<svg xmlns="http://www.w3.org/2000/svg" xmlns:xlink="http://www.w3.org/1999/xlink" xmlns:lucid="lucid" width="1840" height="1300"><g transform="translate(-40 0)" lucid:page-tab-id="0_0"><path d="M0 0h1870.4v1323.2H0z" fill="#fff"/><path d="M600 20h1260v1260H600z" stroke="#000" stroke-width="2" fill="#e5e5e5"/><path d="M726.13 80h505.34v372H726.13z" stroke="#000" stroke-width="2" fill="#fff"/><path d="M726.13 118h505.34m-505.34 80h505.34" stroke="#000" stroke-width="2" fill="none"/><use xlink:href="#a" transform="matrix(1,0,0,1,734.1333333333328,80) translate(145.075 22.6)"/><use xlink:href="#b" transform="matrix(1,0,0,1,734.1333333333328,80) translate(258.025 22.6)"/><use xlink:href="#c" transform="matrix(1,0,0,1,738.1333333333328,125.6) translate(0 14.500000000000002)"/><use xlink:href="#d" transform="matrix(1,0,0,1,738.1333333333328,125.6) translate(215.75 14.500000000000002)"/><use xlink:href="#e" transform="matrix(1,0,0,1,738.1333333333328,125.6) translate(0 36.1)"/><use xlink:href="#f" transform="matrix(1,0,0,1,738.1333333333328,125.6) translate(52.95 36.1)"/><use xlink:href="#g" transform="matrix(1,0,0,1,738.1333333333328,125.6) translate(0 57.7)"/><use xlink:href="#h" transform="matrix(1,0,0,1,738.1333333333328,125.6) translate(117.45000000000002 57.7)"/><use xlink:href="#i" transform="matrix(1,0,0,1,738.1333333333328,206.39999999999998) translate(0 14.600000000000017)"/><use xlink:href="#j" transform="matrix(1,0,0,1,738.1333333333328,206.39999999999998) translate(274.99999999999994 14.600000000000017)"/><use xlink:href="#k" transform="matrix(1,0,0,1,738.1333333333328,206.39999999999998) translate(0 36.20000000000002)"/><use xlink:href="#l" transform="matrix(1,0,0,1,738.1333333333328,206.39999999999998) translate(195.74999999999997 36.20000000000002)"/><use xlink:href="#m" transform="matrix(1,0,0,1,738.1333333333328,206.39999999999998) translate(0 57.80000000000002)"/><use xlink:href="#n" transform="matrix(1,0,0,1,738.1333333333328,206.39999999999998) translate(168.75 57.80000000000002)"/><use xlink:href="#l" transform="matrix(1,0,0,1,738.1333333333328,206.39999999999998) translate(226.65 57.80000000000002)"/><use xlink:href="#o" transform="matrix(1,0,0,1,738.1333333333328,206.39999999999998) translate(0 79.40000000000003)"/><use xlink:href="#p" transform="matrix(1,0,0,1,738.1333333333328,206.39999999999998) translate(249.64999999999998 79.40000000000003)"/><use xlink:href="#q" transform="matrix(1,0,0,1,738.1333333333328,206.39999999999998) translate(0 101.00000000000003)"/><use xlink:href="#r" transform="matrix(1,0,0,1,738.1333333333328,206.39999999999998) translate(113.80000000000001 101.00000000000003)"/><use xlink:href="#s" transform="matrix(1,0,0,1,738.1333333333328,206.39999999999998) translate(336.45 101.00000000000003)"/><use xlink:href="#t" transform="matrix(1,0,0,1,738.1333333333328,206.39999999999998) translate(0 122.60000000000002)"/><use xlink:href="#n" transform="matrix(1,0,0,1,738.1333333333328,206.39999999999998) translate(166.7 122.60000000000002)"/><use xlink:href="#u" transform="matrix(1,0,0,1,738.1333333333328,206.39999999999998) translate(224.6 122.60000000000002)"/><use xlink:href="#v" transform="matrix(1,0,0,1,738.1333333333328,206.39999999999998) translate(0 144.20000000000002)"/><use xlink:href="#w" transform="matrix(1,0,0,1,738.1333333333328,206.39999999999998) translate(136.85000000000002 144.20000000000002)"/><use xlink:href="#s" transform="matrix(1,0,0,1,738.1333333333328,206.39999999999998) translate(237.70000000000005 144.20000000000002)"/><use xlink:href="#x" transform="matrix(1,0,0,1,738.1333333333328,206.39999999999998) translate(0 165.8)"/><use xlink:href="#y" transform="matrix(1,0,0,1,738.1333333333328,206.39999999999998) translate(177.7 165.8)"/><use xlink:href="#u" transform="matrix(1,0,0,1,738.1333333333328,206.39999999999998) translate(236.6 165.8)"/><use xlink:href="#z" transform="matrix(1,0,0,1,738.1333333333328,206.39999999999998) translate(0 187.4)"/><use xlink:href="#A" transform="matrix(1,0,0,1,738.1333333333328,206.39999999999998) translate(158.7 187.4)"/><use xlink:href="#l" transform="matrix(1,0,0,1,738.1333333333328,206.39999999999998) translate(242.5 187.4)"/><use xlink:href="#B" transform="matrix(1,0,0,1,738.1333333333328,206.39999999999998) translate(0 209)"/><use xlink:href="#A" transform="matrix(1,0,0,1,738.1333333333328,206.39999999999998) translate(179.6 209)"/><use xlink:href="#u" transform="matrix(1,0,0,1,738.1333333333328,206.39999999999998) translate(263.4 209)"/><use xlink:href="#C" transform="matrix(1,0,0,1,738.1333333333328,206.39999999999998) translate(0 230.6)"/><use xlink:href="#D" transform="matrix(1,0,0,1,738.1333333333328,206.39999999999998) translate(101.80000000000001 230.6)"/><path d="M1263.22 266h104.9" stroke="#000" stroke-width="2" fill="none"/><path d="M1233.88 266l14.85-14.85 15.15 14.85-15.15 14.85z" stroke="#000" stroke-width="2" fill="#fff"/><path d="M1369.13 267h-1.02v-2h1.03z"/><use xlink:href="#E" transform="matrix(1,0,0,1,1249.2587626271472,240.39999999999998) translate(0 14.4)"/><use xlink:href="#F" transform="matrix(1,0,0,1,1339.133333333333,240.39999999999998) translate(0 14.4)"/><path d="M1370.13 112.4h360v307.2h-360z" stroke="#000" stroke-width="2" fill="#fff"/><path d="M1370.13 150h360m-360 192h360" stroke="#000" stroke-width="2" fill="none"/><use xlink:href="#G" transform="matrix(1,0,0,1,1378.133333333333,112.40000000000003) translate(150.025 22.6)"/><use xlink:href="#H" transform="matrix(1,0,0,1,1382.133333333333,158.00000000000003) translate(0 37.6)"/><use xlink:href="#I" transform="matrix(1,0,0,1,1382.133333333333,158.00000000000003) translate(52.95 37.6)"/><use xlink:href="#J" transform="matrix(1,0,0,1,1382.133333333333,158.00000000000003) translate(0 59.2)"/><use xlink:href="#K" transform="matrix(1,0,0,1,1382.133333333333,158.00000000000003) translate(49 59.2)"/><use xlink:href="#L" transform="matrix(1,0,0,1,1382.133333333333,158.00000000000003) translate(0 80.80000000000001)"/><use xlink:href="#M" transform="matrix(1,0,0,1,1382.133333333333,158.00000000000003) translate(106.9 80.80000000000001)"/><use xlink:href="#N" transform="matrix(1,0,0,1,1382.133333333333,158.00000000000003) translate(0 102.40000000000002)"/><use xlink:href="#O" transform="matrix(1,0,0,1,1382.133333333333,158.00000000000003) translate(92.85 102.40000000000002)"/><use xlink:href="#P" transform="matrix(1,0,0,1,1382.133333333333,158.00000000000003) translate(0 124.00000000000001)"/><use xlink:href="#K" transform="matrix(1,0,0,1,1382.133333333333,158.00000000000003) translate(126.9 124.00000000000001)"/><use xlink:href="#Q" transform="matrix(1,0,0,1,1382.133333333333,158.00000000000003) translate(0 145.6)"/><use xlink:href="#R" transform="matrix(1,0,0,1,1382.133333333333,158.00000000000003) translate(59 145.6)"/><use xlink:href="#S" transform="matrix(1,0,0,1,1382.133333333333,349.66874999999993) translate(0 23.799999999999997)"/><use xlink:href="#K" transform="matrix(1,0,0,1,1382.133333333333,349.66874999999993) translate(141.8 23.799999999999997)"/><use xlink:href="#T" transform="matrix(1,0,0,1,1382.133333333333,349.66874999999993) translate(0 45.4)"/><use xlink:href="#R" transform="matrix(1,0,0,1,1382.133333333333,349.66874999999993) translate(174.79999999999998 45.4)"/><path d="M1761.88 266h69.6v362h-99.35" stroke="#000" stroke-width="2" fill="none"/><path d="M1732.55 266l14.85-14.85 15.15 14.85-15.15 14.85z" stroke="#000" stroke-width="2" fill="#fff"/><path d="M1732.16 629h-1.03v-2h1.03z"/><use xlink:href="#F" transform="matrix(1,0,0,1,1739.9203845341742,632) translate(0 14.4)"/><use xlink:href="#E" transform="matrix(1,0,0,1,1763.5740024871884,240.39999999999998) translate(0 14.4)"/><path d="M1370.13 560h360v136h-360z" stroke="#000" stroke-width="2" fill="#fff"/><path d="M1370.13 598h360m-360 60h360" stroke="#000" stroke-width="2" fill="none"/><use xlink:href="#U" transform="matrix(1,0,0,1,1378.133333333333,560) translate(125.4 22.6)"/><use xlink:href="#V" transform="matrix(1,0,0,1,1382.133333333333,605.6) translate(0 15.299999999999999)"/><use xlink:href="#K" transform="matrix(1,0,0,1,1382.133333333333,605.6) translate(23.95 15.299999999999999)"/><use xlink:href="#W" transform="matrix(1,0,0,1,1382.133333333333,605.6) translate(0 36.9)"/><use xlink:href="#R" transform="matrix(1,0,0,1,1382.133333333333,605.6) translate(45 36.9)"/><path d="M1368.13 628h-312.66v-95.5h-.1v-48.75" stroke="#000" stroke-width="2" fill="none"/><path d="M1369.13 629h-1.02v-2h1.03z"/><path d="M1055.38 454.4l14.85 14.86-14.85 15.15-14.85-15.14z" stroke="#000" stroke-width="2" fill="#fff"/><use xlink:href="#F" transform="matrix(1,0,0,1,1315.105512619584,632) translate(0 14.4)"/><use xlink:href="#E" transform="matrix(1,0,0,1,1020.3802834926062,495.44339849713435) translate(0 14.4)"/><path d="M1280 460.47h114.93l11.74 11.73v46.93H1280z" stroke="#000" stroke-width="2" fill="#fff"/><path d="M1394.93 460.47l11.74 11.73-9.4-2.35z" stroke="#000" stroke-width="2" fill="#b3b3b3"/><use xlink:href="#X" transform="matrix(1,0,0,1,1280,460.4666666666667) translate(5.01 19.41)"/><use xlink:href="#Y" transform="matrix(1,0,0,1,1280,460.4666666666667) translate(5.01 41.01)"/><path d="M1342.6 520.82l-112.9 106.5" fill="none"/><path d="M1342.6 520.82l-2.82 2.66m-5.64 5.33l-5.65 5.33m-5.65 5.33l-5.65 5.32m-5.64 5.33l-5.65 5.33m-5.63 5.32l-5.65 5.33m-5.64 5.32l-5.64 5.33m-5.65 5.32l-5.65 5.33m-5.65 5.32l-5.64 5.33m-5.65 5.32l-5.63 5.33m-5.65 5.32l-5.64 5.33m-5.65 5.32l-2.82 2.66" stroke="#000" stroke-width="2" fill="none"/><path d="M1343.27 521.56l-1.35-1.43h2.87z"/><path d="M1229.73 627.3l-.75.7" stroke="#000" stroke-width="2" fill="none"/><path d="M1660 460.47h114.93l11.74 11.73v46.93H1660z" stroke="#000" stroke-width="2" fill="#fff"/><path d="M1774.93 460.47l11.74 11.73-9.4-2.35z" stroke="#000" stroke-width="2" fill="#b3b3b3"/><g><use xlink:href="#Z" transform="matrix(1,0,0,1,1660,460.4666666666667) translate(5.01 19.41)"/><use xlink:href="#Y" transform="matrix(1,0,0,1,1660,460.4666666666667) translate(5.01 41.01)"/></g><path d="M1723.87 520.98l68.1 106.18" fill="none"/><path d="M1723.87 520.98l2.13 3.3m4.26 6.65l4.26 6.64m4.25 6.63l4.26 6.64m4.26 6.64l4.24 6.63m4.26 6.65l4.26 6.63m4.25 6.64l4.27 6.64m4.26 6.63l4.25 6.63m4.26 6.64l4.26 6.63m4.25 6.64l2.13 3.32" stroke="#000" stroke-width="2" fill="none"/><path d="M1724.73 520.46l-1.68 1.08-.9-1.4h2.37z"/><path d="M1791.97 627.14l.55.86" stroke="#000" stroke-width="2" fill="none"/><path d="M726.13 660h505.34v146.67H726.13z" stroke="#000" stroke-width="2" fill="#fff"/><path d="M726.13 698h505.34m-505.34 54h505.34" stroke="#000" stroke-width="2" fill="none"/><g><use xlink:href="#aa" transform="matrix(1,0,0,1,734.1333333333719,660) translate(222.575 22.6)"/></g><g><use xlink:href="#ab" transform="matrix(1,0,0,1,738.1333333333719,760.1333333333334) translate(0 23.1)"/><use xlink:href="#ac" transform="matrix(1,0,0,1,738.1333333333719,760.1333333333334) translate(249.64999999999998 23.1)"/></g><path d="M866.13 658V556h.13v-78.52" stroke="#000" stroke-width="2" fill="none"/><path d="M867.13 659h-2v-1.03h2z"/><path d="M866.26 454.96L879 476.48h-25.47zM60 880h360v260H60z" stroke="#000" stroke-width="2" fill="#fff"/><path d="M60 918h360M60 1036h360" stroke="#000" stroke-width="2" fill="none"/><g><use xlink:href="#ad" transform="matrix(1,0,0,1,68,880) translate(109.6 22.6)"/></g><g><use xlink:href="#ae" transform="matrix(1,0,0,1,72,925.6) translate(0 44.3)"/><use xlink:href="#K" transform="matrix(1,0,0,1,72,925.6) translate(98.85000000000001 44.3)"/><use xlink:href="#af" transform="matrix(1,0,0,1,72,925.6) translate(0 65.9)"/><use xlink:href="#h" transform="matrix(1,0,0,1,72,925.6) translate(95.80000000000001 65.9)"/></g><path d="M724.13 1005.94H422" stroke="#000" stroke-width="2" fill="none"/><path d="M725.13 1006.94h-1.02v-2h1.03zM422.03 1006.94H421v-2h1.03z"/><g><use xlink:href="#F" transform="matrix(1,0,0,1,680.3333333333334,980.3374999999813) translate(0 14.4)"/></g><g><use xlink:href="#F" transform="matrix(1,0,0,1,432.33333333333337,980.3374999999813) translate(0 14.4)"/></g><path d="M360 1180h176.27l11.73 11.73v46.94H360z" stroke="#000" stroke-width="2" fill="#fff"/><path d="M536.27 1180l11.73 11.73-9.4-2.34z" stroke="#000" stroke-width="2" fill="#b3b3b3"/><g><use xlink:href="#ag" transform="matrix(1,0,0,1,360,1180) translate(5.01 32.8375)"/><use xlink:href="#ah" transform="matrix(1,0,0,1,360,1180) translate(59.01 32.8375)"/><use xlink:href="#ai" transform="matrix(1,0,0,1,360,1180) translate(136.81 32.8375)"/></g><path d="M548.87 1208.34l-26.98-201.4" fill="none"/><path d="M548.87 1208.34l-.52-3.87m-1.04-7.75l-1.03-7.74m-1.03-7.75l-1.04-7.75m-1.04-7.74l-1.04-7.75m-1.03-7.76l-1.05-7.74m-1.04-7.75l-1.03-7.75m-1.03-7.74l-1.04-7.75m-1.04-7.74l-1.04-7.74m-1.03-7.75l-1.05-7.75m-1.04-7.74l-1.03-7.75m-1.03-7.75l-1.04-7.74m-1.04-7.75l-1.04-7.76m-1.03-7.74l-1.05-7.75m-1.04-7.75l-.5-3.87" stroke="#000" stroke-width="2" fill="none"/><path d="M550.4 1212.17l-1.4.2v-4.07l.85-.12z"/><path d="M521.9 1006.95l-.14-1" stroke="#000" stroke-width="2" fill="none"/><path d="M726.13 880h505.34v260H726.13z" stroke="#000" stroke-width="2" fill="#fff"/><path d="M726.13 918h505.34m-505.34 107h505.34" stroke="#000" stroke-width="2" fill="none"/><g><use xlink:href="#aj" transform="matrix(1,0,0,1,734.1333333332941,880) translate(125.74999999999999 22.6)"/><use xlink:href="#ak" transform="matrix(1,0,0,1,734.1333333332941,880) translate(175.6 22.6)"/><use xlink:href="#al" transform="matrix(1,0,0,1,734.1333333332941,880) translate(305.35 22.6)"/></g><path d="M738.8 933.62h480v91.17h-480z" stroke="#000" stroke-opacity="0" stroke-width="2" fill="#fff" fill-opacity="0"/><path d="M783.47 930.46h328.5l19.5 19.5v78h-348z" stroke="#000" stroke-width="2" fill="#fff"/><path d="M1111.97 930.46l19.5 19.5-15.6-3.9z" stroke="#000" stroke-width="2" fill="#b3b3b3"/><g><use xlink:href="#am" transform="matrix(1,0,0,1,783.4666666666662,930.4562499999454) translate(5.01 29.7125)"/><use xlink:href="#an" transform="matrix(1,0,0,1,783.4666666666662,930.4562499999454) translate(105.01 29.7125)"/><use xlink:href="#ao" transform="matrix(1,0,0,1,783.4666666666662,930.4562499999454) translate(131.01 29.7125)"/><use xlink:href="#ap" transform="matrix(1,0,0,1,783.4666666666662,930.4562499999454) translate(227.16 29.7125)"/><use xlink:href="#aq" transform="matrix(1,0,0,1,783.4666666666662,930.4562499999454) translate(5.01 51.3125)"/><use xlink:href="#ar" transform="matrix(1,0,0,1,783.4666666666662,930.4562499999454) translate(39.01 51.3125)"/><use xlink:href="#as" transform="matrix(1,0,0,1,783.4666666666662,930.4562499999454) translate(112.96000000000001 51.3125)"/><use xlink:href="#at" transform="matrix(1,0,0,1,783.4666666666662,930.4562499999454) translate(146.96 51.3125)"/><use xlink:href="#au" transform="matrix(1,0,0,1,783.4666666666662,930.4562499999454) translate(223.81 51.3125)"/><use xlink:href="#av" transform="matrix(1,0,0,1,783.4666666666662,930.4562499999454) translate(238.81 51.3125)"/><use xlink:href="#aq" transform="matrix(1,0,0,1,783.4666666666662,930.4562499999454) translate(5.01 72.91250000000001)"/><use xlink:href="#aw" transform="matrix(1,0,0,1,783.4666666666662,930.4562499999454) translate(39.01 72.91250000000001)"/><use xlink:href="#ax" transform="matrix(1,0,0,1,783.4666666666662,930.4562499999454) translate(134.86 72.91250000000001)"/><use xlink:href="#ay" transform="matrix(1,0,0,1,783.4666666666662,930.4562499999454) translate(148.86 72.91250000000001)"/><use xlink:href="#as" transform="matrix(1,0,0,1,783.4666666666662,930.4562499999454) translate(241.81 72.91250000000001)"/><use xlink:href="#az" transform="matrix(1,0,0,1,783.4666666666662,930.4562499999454) translate(275.81 72.91250000000001)"/></g><path d="M790.3 1142v38H663.48v-98.5h60.66" stroke="#000" stroke-width="2" fill="none"/><path d="M791.3 1142.03h-2V1141h2zM725.13 1082.5h-1.02v-2h1.03z"/><g><use xlink:href="#E" transform="matrix(1,0,0,1,798.3147410215421,1146.6827431680508) translate(0 14.4)"/></g><g><use xlink:href="#E" transform="matrix(1,0,0,1,689.2800244116255,1055.9000000000174) translate(0 14.4)"/></g><path d="M549.8 1208.74l112.86-83.16" fill="none"/><path d="M549.8 1208.74l3.14-2.3m6.27-4.63l6.28-4.6m6.27-4.63l6.27-4.62m6.27-4.62l6.26-4.62m6.27-4.6l6.27-4.63m6.27-4.62l6.27-4.62m6.27-4.62l6.28-4.6m6.27-4.63l6.27-4.62m6.27-4.62l6.26-4.62m6.27-4.6l3.13-2.32" stroke="#000" stroke-width="2" fill="none"/><path d="M550.42 1209.53l-1.42 1.05v-2.5l.23-.16z"/><path d="M662.64 1125.6l.83-.6M978.8 808.67v39.58" stroke="#000" stroke-width="2" fill="none"/><path d="M979.8 808.7h-2v-1.03h2z"/><path d="M978.8 877.58l-14.85-14.84 14.85-15.16 14.85 15.16z" stroke="#000" stroke-width="2" fill="#fff"/><g><use xlink:href="#F" transform="matrix(1,0,0,1,940.8000000000192,809.2217865752347) translate(0 14.4)"/></g><g><use xlink:href="#F" transform="matrix(1,0,0,1,940.800000000019,839.866666666667) translate(0 14.4)"/></g><defs><path d="M18-100v-36l175-74v27L42-118l151 64v27" id="aA"/><path d="M205 0l-28-72H64L36 0H1l101-248h38L239 0h-34zm-38-99l-47-123c-12 45-31 82-46 123h93" id="aB"/><path d="M115-194c53 0 69 39 70 98 0 66-23 100-70 100C84 3 66-7 56-30L54 0H23l1-261h32v101c10-23 28-34 59-34zm-8 174c40 0 45-34 45-75 0-40-5-75-45-74-42 0-51 32-51 76 0 43 10 73 51 73" id="aC"/><path d="M135-143c-3-34-86-38-87 0 15 53 115 12 119 90S17 21 10-45l28-5c4 36 97 45 98 0-10-56-113-15-118-90-4-57 82-63 122-42 12 7 21 19 24 35" id="aD"/><path d="M59-47c-2 24 18 29 38 22v24C64 9 27 4 27-40v-127H5v-23h24l9-43h21v43h35v23H59v120" id="aE"/><path d="M114-163C36-179 61-72 57 0H25l-1-190h30c1 12-1 29 2 39 6-27 23-49 58-41v29" id="aF"/><path d="M141-36C126-15 110 5 73 4 37 3 15-17 15-53c-1-64 63-63 125-63 3-35-9-54-41-54-24 1-41 7-42 31l-33-3c5-37 33-52 76-52 45 0 72 20 72 64v82c-1 20 7 32 28 27v20c-31 9-61-2-59-35zM48-53c0 20 12 33 32 33 41-3 63-29 60-74-43 2-92-5-92 41" id="aG"/><path d="M96-169c-40 0-48 33-48 73s9 75 48 75c24 0 41-14 43-38l32 2c-6 37-31 61-74 61-59 0-76-41-82-99-10-93 101-131 147-64 4 7 5 14 7 22l-32 3c-4-21-16-35-41-35" id="aH"/><path d="M18-27v-27l151-64-151-65v-27l175 74v36" id="aI"/><g id="a"><use transform="matrix(0.05,0,0,0.05,0,0)" xlink:href="#aA"/><use transform="matrix(0.05,0,0,0.05,10.5,0)" xlink:href="#aA"/><use transform="matrix(0.05,0,0,0.05,21,0)" xlink:href="#aB"/><use transform="matrix(0.05,0,0,0.05,33,0)" xlink:href="#aC"/><use transform="matrix(0.05,0,0,0.05,43,0)" xlink:href="#aD"/><use transform="matrix(0.05,0,0,0.05,52,0)" xlink:href="#aE"/><use transform="matrix(0.05,0,0,0.05,57,0)" xlink:href="#aF"/><use transform="matrix(0.05,0,0,0.05,62.95,0)" xlink:href="#aG"/><use transform="matrix(0.05,0,0,0.05,72.95,0)" xlink:href="#aH"/><use transform="matrix(0.05,0,0,0.05,81.95,0)" xlink:href="#aE"/><use transform="matrix(0.05,0,0,0.05,86.95,0)" xlink:href="#aI"/><use transform="matrix(0.05,0,0,0.05,97.45,0)" xlink:href="#aI"/></g><path d="M160-131c35 5 61 23 61 61C221 17 115-2 30 0v-248c76 3 177-17 177 60 0 33-19 50-47 57zm-97-11c50-1 110 9 110-42 0-47-63-36-110-37v79zm0 115c55-2 124 14 124-45 0-56-70-42-124-44v89" id="aJ"/><path d="M24 0v-261h32V0H24" id="aK"/><path d="M100-194c62-1 85 37 85 99 1 63-27 99-86 99S16-35 15-95c0-66 28-99 85-99zM99-20c44 1 53-31 53-75 0-43-8-75-51-75s-53 32-53 75 10 74 51 75" id="aL"/><path d="M143 0L79-87 56-68V0H24v-261h32v163l83-92h37l-77 82L181 0h-38" id="aM"/><path d="M106-169C34-169 62-67 57 0H25v-261h32l-1 103c12-21 28-36 61-36 89 0 53 116 60 194h-32v-121c2-32-8-49-39-48" id="aN"/><path d="M24-231v-30h32v30H24zM24 0v-190h32V0H24" id="aO"/><path d="M117-194c89-4 53 116 60 194h-32v-121c0-31-8-49-39-48C34-167 62-67 57 0H25l-1-190h30c1 10-1 24 2 32 11-22 29-35 61-36" id="aP"/><g id="b"><use transform="matrix(0.05,0,0,0.05,0,0)" xlink:href="#aJ"/><use transform="matrix(0.05,0,0,0.05,12,0)" xlink:href="#aK"/><use transform="matrix(0.05,0,0,0.05,15.949999999999998,0)" xlink:href="#aL"/><use transform="matrix(0.05,0,0,0.05,25.950000000000003,0)" xlink:href="#aH"/><use transform="matrix(0.05,0,0,0.05,34.95,0)" xlink:href="#aM"/><use transform="matrix(0.05,0,0,0.05,43.95,0)" xlink:href="#aH"/><use transform="matrix(0.05,0,0,0.05,52.95,0)" xlink:href="#aN"/><use transform="matrix(0.05,0,0,0.05,62.95,0)" xlink:href="#aG"/><use transform="matrix(0.05,0,0,0.05,72.95,0)" xlink:href="#aO"/><use transform="matrix(0.05,0,0,0.05,76.9,0)" xlink:href="#aP"/></g><path d="M84 4C-5 8 30-112 23-190h32v120c0 31 7 50 39 49 72-2 45-101 50-169h31l1 190h-30c-1-10 1-25-2-33-11 22-28 36-60 37" id="aQ"/><path d="M101-234c-31-9-42 10-38 44h38v23H63V0H32v-167H5v-23h27c-7-52 17-82 69-68v24" id="aR"/><path d="M210-169c-67 3-38 105-44 169h-31v-121c0-29-5-50-35-48C34-165 62-65 56 0H25l-1-190h30c1 10-1 24 2 32 10-44 99-50 107 0 11-21 27-35 58-36 85-2 47 119 55 194h-31v-121c0-29-5-49-35-48" id="aS"/><path d="M100-194c63 0 86 42 84 106H49c0 40 14 67 53 68 26 1 43-12 49-29l28 8c-11 28-37 45-77 45C44 4 14-33 15-96c1-61 26-98 85-98zm52 81c6-60-76-77-97-28-3 7-6 17-6 28h103" id="aT"/><path d="M85-194c31 0 48 13 60 33l-1-100h32l1 261h-30c-2-10 0-23-3-31C134-8 116 4 85 4 32 4 16-35 15-94c0-66 23-100 70-100zm9 24c-40 0-46 34-46 75 0 40 6 74 45 74 42 0 51-32 51-76 0-42-9-74-50-73" id="aU"/><path d="M-5 72V49h209v23H-5" id="aV"/><path d="M33-154v-36h34v36H33zM33 0v-36h34V0H33" id="aW"/><g id="c"><use transform="matrix(0.05,0,0,0.05,0,0)" xlink:href="#aQ"/><use transform="matrix(0.05,0,0,0.05,10,0)" xlink:href="#aP"/><use transform="matrix(0.05,0,0,0.05,20,0)" xlink:href="#aH"/><use transform="matrix(0.05,0,0,0.05,29,0)" xlink:href="#aL"/><use transform="matrix(0.05,0,0,0.05,39,0)" xlink:href="#aP"/><use transform="matrix(0.05,0,0,0.05,49,0)" xlink:href="#aR"/><use transform="matrix(0.05,0,0,0.05,54,0)" xlink:href="#aO"/><use transform="matrix(0.05,0,0,0.05,57.95,0)" xlink:href="#aF"/><use transform="matrix(0.05,0,0,0.05,63.900000000000006,0)" xlink:href="#aS"/><use transform="matrix(0.05,0,0,0.05,78.85000000000001,0)" xlink:href="#aT"/><use transform="matrix(0.05,0,0,0.05,88.85000000000001,0)" xlink:href="#aU"/><use transform="matrix(0.05,0,0,0.05,98.85000000000001,0)" xlink:href="#aV"/><use transform="matrix(0.05,0,0,0.05,108.85000000000001,0)" xlink:href="#aE"/><use transform="matrix(0.05,0,0,0.05,113.85000000000001,0)" xlink:href="#aF"/><use transform="matrix(0.05,0,0,0.05,119.80000000000001,0)" xlink:href="#aG"/><use transform="matrix(0.05,0,0,0.05,129.8,0)" xlink:href="#aP"/><use transform="matrix(0.05,0,0,0.05,139.8,0)" xlink:href="#aD"/><use transform="matrix(0.05,0,0,0.05,148.8,0)" xlink:href="#aG"/><use transform="matrix(0.05,0,0,0.05,158.8,0)" xlink:href="#aH"/><use transform="matrix(0.05,0,0,0.05,167.8,0)" xlink:href="#aE"/><use transform="matrix(0.05,0,0,0.05,172.8,0)" xlink:href="#aO"/><use transform="matrix(0.05,0,0,0.05,176.75,0)" xlink:href="#aL"/><use transform="matrix(0.05,0,0,0.05,186.75,0)" xlink:href="#aP"/><use transform="matrix(0.05,0,0,0.05,196.75,0)" xlink:href="#aD"/><use transform="matrix(0.05,0,0,0.05,205.75,0)" xlink:href="#aW"/></g><path d="M30 0v-248h33v221h125V0H30" id="aX"/><g id="d"><use transform="matrix(0.05,0,0,0.05,0,0)" xlink:href="#aX"/><use transform="matrix(0.05,0,0,0.05,10,0)" xlink:href="#aO"/><use transform="matrix(0.05,0,0,0.05,13.949999999999998,0)" xlink:href="#aD"/><use transform="matrix(0.05,0,0,0.05,22.95,0)" xlink:href="#aE"/><use transform="matrix(0.05,0,0,0.05,27.950000000000003,0)" xlink:href="#aA"/><use transform="matrix(0.05,0,0,0.05,38.45,0)" xlink:href="#aE"/><use transform="matrix(0.05,0,0,0.05,43.45,0)" xlink:href="#aF"/><use transform="matrix(0.05,0,0,0.05,49.400000000000006,0)" xlink:href="#aG"/><use transform="matrix(0.05,0,0,0.05,59.400000000000006,0)" xlink:href="#aP"/><use transform="matrix(0.05,0,0,0.05,69.4,0)" xlink:href="#aD"/><use transform="matrix(0.05,0,0,0.05,78.4,0)" xlink:href="#aG"/><use transform="matrix(0.05,0,0,0.05,88.4,0)" xlink:href="#aH"/><use transform="matrix(0.05,0,0,0.05,97.4,0)" xlink:href="#aE"/><use transform="matrix(0.05,0,0,0.05,102.4,0)" xlink:href="#aO"/><use transform="matrix(0.05,0,0,0.05,106.35000000000001,0)" xlink:href="#aL"/><use transform="matrix(0.05,0,0,0.05,116.35000000000001,0)" xlink:href="#aP"/><use transform="matrix(0.05,0,0,0.05,126.35000000000001,0)" xlink:href="#aI"/></g><g id="e"><use transform="matrix(0.05,0,0,0.05,0,0)" xlink:href="#aH"/><use transform="matrix(0.05,0,0,0.05,9,0)" xlink:href="#aN"/><use transform="matrix(0.05,0,0,0.05,19,0)" xlink:href="#aG"/><use transform="matrix(0.05,0,0,0.05,29,0)" xlink:href="#aO"/><use transform="matrix(0.05,0,0,0.05,32.95,0)" xlink:href="#aP"/><use transform="matrix(0.05,0,0,0.05,42.95,0)" xlink:href="#aW"/></g><g id="f"><use transform="matrix(0.05,0,0,0.05,0,0)" xlink:href="#aX"/><use transform="matrix(0.05,0,0,0.05,10,0)" xlink:href="#aO"/><use transform="matrix(0.05,0,0,0.05,13.949999999999998,0)" xlink:href="#aD"/><use transform="matrix(0.05,0,0,0.05,22.95,0)" xlink:href="#aE"/><use transform="matrix(0.05,0,0,0.05,27.950000000000003,0)" xlink:href="#aA"/><use transform="matrix(0.05,0,0,0.05,38.45,0)" xlink:href="#aJ"/><use transform="matrix(0.05,0,0,0.05,50.45,0)" xlink:href="#aK"/><use transform="matrix(0.05,0,0,0.05,54.400000000000006,0)" xlink:href="#aL"/><use transform="matrix(0.05,0,0,0.05,64.4,0)" xlink:href="#aH"/><use transform="matrix(0.05,0,0,0.05,73.4,0)" xlink:href="#aM"/><use transform="matrix(0.05,0,0,0.05,82.4,0)" xlink:href="#aI"/></g><path d="M115-194c55 1 70 41 70 98S169 2 115 4C84 4 66-9 55-30l1 105H24l-1-265h31l2 30c10-21 28-34 59-34zm-8 174c40 0 45-34 45-75s-6-73-45-74c-42 0-51 32-51 76 0 43 10 73 51 73" id="aY"/><path d="M206 0h-36l-40-164L89 0H53L-1-190h32L70-26l43-164h34l41 164 42-164h31" id="aZ"/><path d="M179-190L93 31C79 59 56 82 12 73V49c39 6 53-20 64-50L1-190h34L92-34l54-156h33" id="ba"/><g id="g"><use transform="matrix(0.05,0,0,0.05,0,0)" xlink:href="#aY"/><use transform="matrix(0.05,0,0,0.05,10,0)" xlink:href="#aL"/><use transform="matrix(0.05,0,0,0.05,20,0)" xlink:href="#aZ"/><use transform="matrix(0.05,0,0,0.05,32.95,0)" xlink:href="#aV"/><use transform="matrix(0.05,0,0,0.05,42.95,0)" xlink:href="#aU"/><use transform="matrix(0.05,0,0,0.05,52.95,0)" xlink:href="#aO"/><use transform="matrix(0.05,0,0,0.05,56.900000000000006,0)" xlink:href="#aR"/><use transform="matrix(0.05,0,0,0.05,61.550000000000004,0)" xlink:href="#aR"/><use transform="matrix(0.05,0,0,0.05,66.55000000000001,0)" xlink:href="#aO"/><use transform="matrix(0.05,0,0,0.05,70.50000000000001,0)" xlink:href="#aH"/><use transform="matrix(0.05,0,0,0.05,79.50000000000001,0)" xlink:href="#aQ"/><use transform="matrix(0.05,0,0,0.05,89.50000000000001,0)" xlink:href="#aK"/><use transform="matrix(0.05,0,0,0.05,93.45000000000002,0)" xlink:href="#aE"/><use transform="matrix(0.05,0,0,0.05,98.45000000000002,0)" xlink:href="#ba"/><use transform="matrix(0.05,0,0,0.05,107.45,0)" xlink:href="#aW"/></g><g id="h"><use transform="matrix(0.05,0,0,0.05,0,0)" xlink:href="#aO"/><use transform="matrix(0.05,0,0,0.05,3.95,0)" xlink:href="#aP"/><use transform="matrix(0.05,0,0,0.05,13.949999999999998,0)" xlink:href="#aE"/></g><path d="M87 75C49 33 22-17 22-94c0-76 28-126 65-167h31c-38 41-64 92-64 168S80 34 118 75H87" id="bb"/><path d="M127-220V0H93v-220H8v-28h204v28h-85" id="bc"/><g id="i"><use transform="matrix(0.05,0,0,0.05,0,0)" xlink:href="#aG"/><use transform="matrix(0.05,0,0,0.05,10,0)" xlink:href="#aU"/><use transform="matrix(0.05,0,0,0.05,20,0)" xlink:href="#aU"/><use transform="matrix(0.05,0,0,0.05,30,0)" xlink:href="#aV"/><use transform="matrix(0.05,0,0,0.05,40,0)" xlink:href="#aP"/><use transform="matrix(0.05,0,0,0.05,50,0)" xlink:href="#aT"/><use transform="matrix(0.05,0,0,0.05,60,0)" xlink:href="#aZ"/><use transform="matrix(0.05,0,0,0.05,72.95,0)" xlink:href="#aV"/><use transform="matrix(0.05,0,0,0.05,82.95,0)" xlink:href="#aE"/><use transform="matrix(0.05,0,0,0.05,87.95,0)" xlink:href="#aF"/><use transform="matrix(0.05,0,0,0.05,93.9,0)" xlink:href="#aG"/><use transform="matrix(0.05,0,0,0.05,103.9,0)" xlink:href="#aP"/><use transform="matrix(0.05,0,0,0.05,113.9,0)" xlink:href="#aD"/><use transform="matrix(0.05,0,0,0.05,122.9,0)" xlink:href="#aG"/><use transform="matrix(0.05,0,0,0.05,132.9,0)" xlink:href="#aH"/><use transform="matrix(0.05,0,0,0.05,141.9,0)" xlink:href="#aE"/><use transform="matrix(0.05,0,0,0.05,146.9,0)" xlink:href="#aO"/><use transform="matrix(0.05,0,0,0.05,150.85,0)" xlink:href="#aL"/><use transform="matrix(0.05,0,0,0.05,160.85,0)" xlink:href="#aP"/><use transform="matrix(0.05,0,0,0.05,170.85,0)" xlink:href="#bb"/><use transform="matrix(0.05,0,0,0.05,176.79999999999998,0)" xlink:href="#bc"/><use transform="matrix(0.05,0,0,0.05,187.09999999999997,0)" xlink:href="#aF"/><use transform="matrix(0.05,0,0,0.05,193.04999999999995,0)" xlink:href="#aG"/><use transform="matrix(0.05,0,0,0.05,203.04999999999995,0)" xlink:href="#aP"/><use transform="matrix(0.05,0,0,0.05,213.04999999999995,0)" xlink:href="#aD"/><use transform="matrix(0.05,0,0,0.05,222.04999999999995,0)" xlink:href="#aG"/><use transform="matrix(0.05,0,0,0.05,232.04999999999995,0)" xlink:href="#aH"/><use transform="matrix(0.05,0,0,0.05,241.04999999999995,0)" xlink:href="#aE"/><use transform="matrix(0.05,0,0,0.05,246.04999999999995,0)" xlink:href="#aO"/><use transform="matrix(0.05,0,0,0.05,249.99999999999991,0)" xlink:href="#aL"/><use transform="matrix(0.05,0,0,0.05,259.99999999999994,0)" xlink:href="#aP"/></g><path d="M33-261c38 41 65 92 65 168S71 34 33 75H2C39 34 66-17 66-93S39-220 2-261h31" id="bd"/><path d="M108 0H70L1-190h34L89-25l56-165h34" id="be"/><g id="j"><use transform="matrix(0.05,0,0,0.05,0,0)" xlink:href="#aE"/><use transform="matrix(0.05,0,0,0.05,5,0)" xlink:href="#aF"/><use transform="matrix(0.05,0,0,0.05,10.95,0)" xlink:href="#aG"/><use transform="matrix(0.05,0,0,0.05,20.95,0)" xlink:href="#aP"/><use transform="matrix(0.05,0,0,0.05,30.950000000000003,0)" xlink:href="#aD"/><use transform="matrix(0.05,0,0,0.05,39.95,0)" xlink:href="#aG"/><use transform="matrix(0.05,0,0,0.05,49.95,0)" xlink:href="#aH"/><use transform="matrix(0.05,0,0,0.05,58.95,0)" xlink:href="#aE"/><use transform="matrix(0.05,0,0,0.05,63.95,0)" xlink:href="#aO"/><use transform="matrix(0.05,0,0,0.05,67.9,0)" xlink:href="#aL"/><use transform="matrix(0.05,0,0,0.05,77.9,0)" xlink:href="#aP"/><use transform="matrix(0.05,0,0,0.05,87.9,0)" xlink:href="#bd"/><use transform="matrix(0.05,0,0,0.05,93.85000000000001,0)" xlink:href="#aW"/><use transform="matrix(0.05,0,0,0.05,98.85000000000001,0)" xlink:href="#be"/><use transform="matrix(0.05,0,0,0.05,107.85000000000001,0)" xlink:href="#aL"/><use transform="matrix(0.05,0,0,0.05,117.85000000000001,0)" xlink:href="#aO"/><use transform="matrix(0.05,0,0,0.05,121.80000000000001,0)" xlink:href="#aU"/></g><path d="M177-190C167-65 218 103 67 71c-23-6-38-20-44-43l32-5c15 47 100 32 89-28v-30C133-14 115 1 83 1 29 1 15-40 15-95c0-56 16-97 71-98 29-1 48 16 59 35 1-10 0-23 2-32h30zM94-22c36 0 50-32 50-73 0-42-14-75-50-75-39 0-46 34-46 75s6 73 46 73" id="bf"/><g id="k"><use transform="matrix(0.05,0,0,0.05,0,0)" xlink:href="#aH"/><use transform="matrix(0.05,0,0,0.05,9,0)" xlink:href="#aF"/><use transform="matrix(0.05,0,0,0.05,14.949999999999998,0)" xlink:href="#aT"/><use transform="matrix(0.05,0,0,0.05,24.95,0)" xlink:href="#aG"/><use transform="matrix(0.05,0,0,0.05,34.95,0)" xlink:href="#aE"/><use transform="matrix(0.05,0,0,0.05,39.95,0)" xlink:href="#aT"/><use transform="matrix(0.05,0,0,0.05,49.95,0)" xlink:href="#aV"/><use transform="matrix(0.05,0,0,0.05,59.95,0)" xlink:href="#bf"/><use transform="matrix(0.05,0,0,0.05,69.95,0)" xlink:href="#aT"/><use transform="matrix(0.05,0,0,0.05,79.95,0)" xlink:href="#aP"/><use transform="matrix(0.05,0,0,0.05,89.95,0)" xlink:href="#aT"/><use transform="matrix(0.05,0,0,0.05,99.95,0)" xlink:href="#aD"/><use transform="matrix(0.05,0,0,0.05,108.95,0)" xlink:href="#aO"/><use transform="matrix(0.05,0,0,0.05,112.9,0)" xlink:href="#aD"/><use transform="matrix(0.05,0,0,0.05,121.9,0)" xlink:href="#aV"/><use transform="matrix(0.05,0,0,0.05,131.9,0)" xlink:href="#aC"/><use transform="matrix(0.05,0,0,0.05,141.9,0)" xlink:href="#aK"/><use transform="matrix(0.05,0,0,0.05,145.85,0)" xlink:href="#aL"/><use transform="matrix(0.05,0,0,0.05,155.85,0)" xlink:href="#aH"/><use transform="matrix(0.05,0,0,0.05,164.85,0)" xlink:href="#aM"/><use transform="matrix(0.05,0,0,0.05,173.85,0)" xlink:href="#bb"/><use transform="matrix(0.05,0,0,0.05,179.79999999999998,0)" xlink:href="#bd"/><use transform="matrix(0.05,0,0,0.05,185.74999999999997,0)" xlink:href="#aW"/></g><g id="l"><use transform="matrix(0.05,0,0,0.05,0,0)" xlink:href="#be"/><use transform="matrix(0.05,0,0,0.05,9,0)" xlink:href="#aL"/><use transform="matrix(0.05,0,0,0.05,19,0)" xlink:href="#aO"/><use transform="matrix(0.05,0,0,0.05,22.95,0)" xlink:href="#aU"/></g><g id="m"><use transform="matrix(0.05,0,0,0.05,0,0)" xlink:href="#aY"/><use transform="matrix(0.05,0,0,0.05,10,0)" xlink:href="#aF"/><use transform="matrix(0.05,0,0,0.05,15.949999999999998,0)" xlink:href="#aL"/><use transform="matrix(0.05,0,0,0.05,25.950000000000003,0)" xlink:href="#aL"/><use transform="matrix(0.05,0,0,0.05,35.95,0)" xlink:href="#aR"/><use transform="matrix(0.05,0,0,0.05,40.95,0)" xlink:href="#aV"/><use transform="matrix(0.05,0,0,0.05,50.95,0)" xlink:href="#aL"/><use transform="matrix(0.05,0,0,0.05,60.95,0)" xlink:href="#aR"/><use transform="matrix(0.05,0,0,0.05,65.95,0)" xlink:href="#aV"/><use transform="matrix(0.05,0,0,0.05,75.95,0)" xlink:href="#aZ"/><use transform="matrix(0.05,0,0,0.05,88.9,0)" xlink:href="#aL"/><use transform="matrix(0.05,0,0,0.05,98.9,0)" xlink:href="#aF"/><use transform="matrix(0.05,0,0,0.05,104.85000000000001,0)" xlink:href="#aM"/><use transform="matrix(0.05,0,0,0.05,113.85000000000001,0)" xlink:href="#bb"/><use transform="matrix(0.05,0,0,0.05,119.80000000000001,0)" xlink:href="#aJ"/><use transform="matrix(0.05,0,0,0.05,131.8,0)" xlink:href="#aK"/><use transform="matrix(0.05,0,0,0.05,135.75,0)" xlink:href="#aL"/><use transform="matrix(0.05,0,0,0.05,145.75,0)" xlink:href="#aH"/><use transform="matrix(0.05,0,0,0.05,154.75,0)" xlink:href="#aM"/></g><g id="n"><use transform="matrix(0.05,0,0,0.05,0,0)" xlink:href="#aC"/><use transform="matrix(0.05,0,0,0.05,10,0)" xlink:href="#aK"/><use transform="matrix(0.05,0,0,0.05,13.949999999999998,0)" xlink:href="#aL"/><use transform="matrix(0.05,0,0,0.05,23.95,0)" xlink:href="#aH"/><use transform="matrix(0.05,0,0,0.05,32.95,0)" xlink:href="#aM"/><use transform="matrix(0.05,0,0,0.05,41.95,0)" xlink:href="#bd"/><use transform="matrix(0.05,0,0,0.05,47.900000000000006,0)" xlink:href="#aW"/></g><path d="M55-144c13 50 104 24 104 88C159 21 15 23 1-39l26-10c6 40 102 42 102-4-13-50-104-23-104-87 0-71 143-71 148-8l-29 4c-5-35-85-37-89 0" id="bg"/><path d="M111-194c62-3 86 47 72 106H45c-7 38 6 69 45 68 27-1 43-14 53-32l24 11C152-15 129 4 87 4 38 3 12-23 12-71c0-70 32-119 99-123zm44 81c14-66-71-72-95-28-4 8-8 17-11 28h106" id="bh"/><path d="M6 0l50-261h32L37 0H6" id="bi"/><path d="M44-68c0 29 11 47 38 47 30 0 42-19 51-41l28 9C148-21 126 4 82 4 31 4 10-29 12-85c3-77 74-140 146-93 12 8 15 23 18 40l-31 5c-1-22-13-36-36-36-52 0-65 49-65 101" id="bj"/><path d="M51-54c-9 22 5 41 31 30L79-1C43 14 10-4 19-52l22-115H19l5-23h22l19-43h21l-9 43h35l-4 23H73" id="bk"/><path d="M-28 44V31h207v13H-28" id="bl"/><path d="M66-151c12-25 30-51 66-40l-6 26C45-176 58-65 38 0H6l36-190h30" id="bm"/><path d="M165-48c-4 18 1 34 23 27l-3 20c-29 8-62 0-52-35h-2C116-14 99 4 63 4 30 4 8-16 8-49c0-68 71-67 138-67 10-26 0-56-31-54-26 1-42 9-47 31l-32-5c8-67 160-71 144 15-5 28-9 54-15 81zM42-50c3 52 80 24 89-6 7-12 7-24 11-38-47 1-103-4-100 44" id="bn"/><path d="M67-158c22-48 132-52 116 29L158 0h-32l25-140c3-38-53-32-70-12C52-117 51-52 38 0H6l36-190h30" id="bo"/><path d="M50-231l6-30h32l-6 30H50zM6 0l37-190h31L37 0H6" id="bp"/><path d="M30-147c31-64 166-65 159 27C183-49 158 1 86 4 9 8 1-88 30-147zM88-20c53 0 68-48 68-100 0-31-11-51-44-50-52 1-68 46-68 97 0 32 13 53 44 53" id="bq"/><path d="M248-111c6-24 9-61-24-58-72 9-57 108-77 169h-31l26-142c3-37-50-30-64-10C52-115 50-51 37 0H6l36-190h30c-1 10-6 24-4 32 13-43 101-52 105 5 13-22 29-41 61-41 90 0 28 129 23 194h-31" id="br"/><path d="M17-49c1-102 45-165 103-212h30C92-210 49-145 49-46 49 4 63 43 85 75H54C30 43 18 2 17-49" id="bs"/><path d="M98-137C97-35 54 29-4 75h-31C23 23 67-41 67-140c0-50-15-89-37-121h31c24 32 36 73 37 124" id="bt"/><path d="M44-154l7-36h35l-8 36H44zM14 0l7-36h35L49 0H14" id="bu"/><g id="o"><use transform="matrix(0.05,0,0,0.05,0,0)" xlink:href="#bg"/><use transform="matrix(0.05,0,0,0.05,9,0)" xlink:href="#bh"/><use transform="matrix(0.05,0,0,0.05,19,0)" xlink:href="#bi"/><use transform="matrix(0.05,0,0,0.05,22.95,0)" xlink:href="#bh"/><use transform="matrix(0.05,0,0,0.05,32.95,0)" xlink:href="#bj"/><use transform="matrix(0.05,0,0,0.05,41.95,0)" xlink:href="#bk"/><use transform="matrix(0.05,0,0,0.05,46.95,0)" xlink:href="#bl"/><use transform="matrix(0.05,0,0,0.05,56.95,0)" xlink:href="#bk"/><use transform="matrix(0.05,0,0,0.05,61.95,0)" xlink:href="#bm"/><use transform="matrix(0.05,0,0,0.05,67.9,0)" xlink:href="#bn"/><use transform="matrix(0.05,0,0,0.05,77.9,0)" xlink:href="#bo"/><use transform="matrix(0.05,0,0,0.05,87.9,0)" xlink:href="#bg"/><use transform="matrix(0.05,0,0,0.05,96.9,0)" xlink:href="#bn"/><use transform="matrix(0.05,0,0,0.05,106.9,0)" xlink:href="#bj"/><use transform="matrix(0.05,0,0,0.05,115.9,0)" xlink:href="#bk"/><use transform="matrix(0.05,0,0,0.05,120.9,0)" xlink:href="#bp"/><use transform="matrix(0.05,0,0,0.05,124.85000000000001,0)" xlink:href="#bq"/><use transform="matrix(0.05,0,0,0.05,134.85000000000002,0)" xlink:href="#bo"/><use transform="matrix(0.05,0,0,0.05,144.85000000000002,0)" xlink:href="#bg"/><use transform="matrix(0.05,0,0,0.05,153.85000000000002,0)" xlink:href="#bl"/><use transform="matrix(0.05,0,0,0.05,163.85000000000002,0)" xlink:href="#bk"/><use transform="matrix(0.05,0,0,0.05,168.85000000000002,0)" xlink:href="#bq"/><use transform="matrix(0.05,0,0,0.05,178.85000000000002,0)" xlink:href="#bl"/><use transform="matrix(0.05,0,0,0.05,188.85000000000002,0)" xlink:href="#br"/><use transform="matrix(0.05,0,0,0.05,203.8,0)" xlink:href="#bp"/><use transform="matrix(0.05,0,0,0.05,207.75,0)" xlink:href="#bo"/><use transform="matrix(0.05,0,0,0.05,217.75,0)" xlink:href="#bh"/><use transform="matrix(0.05,0,0,0.05,227.75,0)" xlink:href="#bs"/><use transform="matrix(0.05,0,0,0.05,233.69999999999996,0)" xlink:href="#bt"/><use transform="matrix(0.05,0,0,0.05,239.64999999999998,0)" xlink:href="#bu"/></g><path d="M11 0l48-248h34L50-27h125l-5 27H11" id="bv"/><path d="M23-100v-36l175-74v27L47-118l151 64v27" id="bw"/><path d="M151-220L108 0H75l42-220H32l6-28h203l-5 28h-85" id="bx"/><path d="M23-27v-27l151-64-151-65v-27l175 74v36" id="by"/><g id="p"><use transform="matrix(0.05,0,0,0.05,0,0)" xlink:href="#bv"/><use transform="matrix(0.05,0,0,0.05,10,0)" xlink:href="#bp"/><use transform="matrix(0.05,0,0,0.05,13.949999999999998,0)" xlink:href="#bg"/><use transform="matrix(0.05,0,0,0.05,22.95,0)" xlink:href="#bk"/><use transform="matrix(0.05,0,0,0.05,27.950000000000003,0)" xlink:href="#bw"/><use transform="matrix(0.05,0,0,0.05,38.45,0)" xlink:href="#bx"/><use transform="matrix(0.05,0,0,0.05,48.050000000000004,0)" xlink:href="#bm"/><use transform="matrix(0.05,0,0,0.05,54,0)" xlink:href="#bn"/><use transform="matrix(0.05,0,0,0.05,64,0)" xlink:href="#bo"/><use transform="matrix(0.05,0,0,0.05,74,0)" xlink:href="#bg"/><use transform="matrix(0.05,0,0,0.05,83,0)" xlink:href="#bn"/><use transform="matrix(0.05,0,0,0.05,93,0)" xlink:href="#bj"/><use transform="matrix(0.05,0,0,0.05,102,0)" xlink:href="#bk"/><use transform="matrix(0.05,0,0,0.05,107,0)" xlink:href="#bp"/><use transform="matrix(0.05,0,0,0.05,110.95,0)" xlink:href="#bq"/><use transform="matrix(0.05,0,0,0.05,120.95,0)" xlink:href="#bo"/><use transform="matrix(0.05,0,0,0.05,130.95,0)" xlink:href="#by"/></g><g id="q"><use transform="matrix(0.05,0,0,0.05,0,0)" xlink:href="#aS"/><use transform="matrix(0.05,0,0,0.05,14.950000000000001,0)" xlink:href="#aO"/><use transform="matrix(0.05,0,0,0.05,18.900000000000002,0)" xlink:href="#aP"/><use transform="matrix(0.05,0,0,0.05,28.900000000000002,0)" xlink:href="#aT"/><use transform="matrix(0.05,0,0,0.05,38.900000000000006,0)" xlink:href="#bb"/><use transform="matrix(0.05,0,0,0.05,44.85000000000001,0)" xlink:href="#aC"/><use transform="matrix(0.05,0,0,0.05,54.85,0)" xlink:href="#aL"/><use transform="matrix(0.05,0,0,0.05,64.85000000000001,0)" xlink:href="#aL"/><use transform="matrix(0.05,0,0,0.05,74.85000000000001,0)" xlink:href="#aK"/><use transform="matrix(0.05,0,0,0.05,78.80000000000001,0)" xlink:href="#aT"/><use transform="matrix(0.05,0,0,0.05,88.80000000000001,0)" xlink:href="#aG"/><use transform="matrix(0.05,0,0,0.05,98.80000000000001,0)" xlink:href="#aP"/></g><g id="r"><use transform="matrix(0.05,0,0,0.05,0,0)" xlink:href="#aG"/><use transform="matrix(0.05,0,0,0.05,10,0)" xlink:href="#aK"/><use transform="matrix(0.05,0,0,0.05,13.949999999999998,0)" xlink:href="#aK"/><use transform="matrix(0.05,0,0,0.05,17.9,0)" xlink:href="#aL"/><use transform="matrix(0.05,0,0,0.05,27.899999999999995,0)" xlink:href="#aZ"/><use transform="matrix(0.05,0,0,0.05,40.85,0)" xlink:href="#aV"/><use transform="matrix(0.05,0,0,0.05,50.85,0)" xlink:href="#aT"/><use transform="matrix(0.05,0,0,0.05,60.85,0)" xlink:href="#aS"/><use transform="matrix(0.05,0,0,0.05,75.8,0)" xlink:href="#aY"/><use transform="matrix(0.05,0,0,0.05,85.8,0)" xlink:href="#aE"/><use transform="matrix(0.05,0,0,0.05,90.8,0)" xlink:href="#ba"/><use transform="matrix(0.05,0,0,0.05,99.8,0)" xlink:href="#aV"/><use transform="matrix(0.05,0,0,0.05,109.80000000000001,0)" xlink:href="#aE"/><use transform="matrix(0.05,0,0,0.05,114.80000000000001,0)" xlink:href="#aF"/><use transform="matrix(0.05,0,0,0.05,120.75,0)" xlink:href="#aG"/><use transform="matrix(0.05,0,0,0.05,130.75,0)" xlink:href="#aP"/><use transform="matrix(0.05,0,0,0.05,140.75,0)" xlink:href="#aD"/><use transform="matrix(0.05,0,0,0.05,149.75,0)" xlink:href="#aG"/><use transform="matrix(0.05,0,0,0.05,159.75,0)" xlink:href="#aH"/><use transform="matrix(0.05,0,0,0.05,168.75,0)" xlink:href="#aE"/><use transform="matrix(0.05,0,0,0.05,173.75,0)" xlink:href="#aO"/><use transform="matrix(0.05,0,0,0.05,177.7,0)" xlink:href="#aL"/><use transform="matrix(0.05,0,0,0.05,187.7,0)" xlink:href="#aP"/><use transform="matrix(0.05,0,0,0.05,197.7,0)" xlink:href="#aD"/><use transform="matrix(0.05,0,0,0.05,206.69999999999996,0)" xlink:href="#bd"/><use transform="matrix(0.05,0,0,0.05,212.64999999999998,0)" xlink:href="#aW"/></g><g id="s"><use transform="matrix(0.05,0,0,0.05,0,0)" xlink:href="#aJ"/><use transform="matrix(0.05,0,0,0.05,12,0)" xlink:href="#aK"/><use transform="matrix(0.05,0,0,0.05,15.949999999999998,0)" xlink:href="#aL"/><use transform="matrix(0.05,0,0,0.05,25.950000000000003,0)" xlink:href="#aH"/><use transform="matrix(0.05,0,0,0.05,34.95,0)" xlink:href="#aM"/></g><g id="t"><use transform="matrix(0.05,0,0,0.05,0,0)" xlink:href="#aO"/><use transform="matrix(0.05,0,0,0.05,3.95,0)" xlink:href="#aD"/><use transform="matrix(0.05,0,0,0.05,12.949999999999998,0)" xlink:href="#aV"/><use transform="matrix(0.05,0,0,0.05,22.95,0)" xlink:href="#be"/><use transform="matrix(0.05,0,0,0.05,31.950000000000003,0)" xlink:href="#aG"/><use transform="matrix(0.05,0,0,0.05,41.95,0)" xlink:href="#aK"/><use transform="matrix(0.05,0,0,0.05,45.900000000000006,0)" xlink:href="#aO"/><use transform="matrix(0.05,0,0,0.05,49.85000000000001,0)" xlink:href="#aU"/><use transform="matrix(0.05,0,0,0.05,59.85,0)" xlink:href="#aV"/><use transform="matrix(0.05,0,0,0.05,69.85000000000001,0)" xlink:href="#aC"/><use transform="matrix(0.05,0,0,0.05,79.85000000000001,0)" xlink:href="#aK"/><use transform="matrix(0.05,0,0,0.05,83.80000000000001,0)" xlink:href="#aL"/><use transform="matrix(0.05,0,0,0.05,93.80000000000001,0)" xlink:href="#aH"/><use transform="matrix(0.05,0,0,0.05,102.80000000000001,0)" xlink:href="#aM"/><use transform="matrix(0.05,0,0,0.05,111.80000000000001,0)" xlink:href="#bb"/><use transform="matrix(0.05,0,0,0.05,117.75,0)" xlink:href="#aJ"/><use transform="matrix(0.05,0,0,0.05,129.75,0)" xlink:href="#aK"/><use transform="matrix(0.05,0,0,0.05,133.7,0)" xlink:href="#aL"/><use transform="matrix(0.05,0,0,0.05,143.7,0)" xlink:href="#aH"/><use transform="matrix(0.05,0,0,0.05,152.7,0)" xlink:href="#aM"/></g><g id="u"><use transform="matrix(0.05,0,0,0.05,0,0)" xlink:href="#aC"/><use transform="matrix(0.05,0,0,0.05,10,0)" xlink:href="#aL"/><use transform="matrix(0.05,0,0,0.05,20,0)" xlink:href="#aL"/><use transform="matrix(0.05,0,0,0.05,30,0)" xlink:href="#aK"/><use transform="matrix(0.05,0,0,0.05,33.95,0)" xlink:href="#aT"/><use transform="matrix(0.05,0,0,0.05,43.95,0)" xlink:href="#aG"/><use transform="matrix(0.05,0,0,0.05,53.95,0)" xlink:href="#aP"/></g><g id="v"><use transform="matrix(0.05,0,0,0.05,0,0)" xlink:href="#aG"/><use transform="matrix(0.05,0,0,0.05,10,0)" xlink:href="#aU"/><use transform="matrix(0.05,0,0,0.05,20,0)" xlink:href="#aU"/><use transform="matrix(0.05,0,0,0.05,30,0)" xlink:href="#aV"/><use transform="matrix(0.05,0,0,0.05,40,0)" xlink:href="#aC"/><use transform="matrix(0.05,0,0,0.05,50,0)" xlink:href="#aK"/><use transform="matrix(0.05,0,0,0.05,53.95,0)" xlink:href="#aL"/><use transform="matrix(0.05,0,0,0.05,63.95,0)" xlink:href="#aH"/><use transform="matrix(0.05,0,0,0.05,72.95,0)" xlink:href="#aM"/><use transform="matrix(0.05,0,0,0.05,81.95,0)" xlink:href="#bb"/><use transform="matrix(0.05,0,0,0.05,87.9,0)" xlink:href="#aJ"/><use transform="matrix(0.05,0,0,0.05,99.9,0)" xlink:href="#aK"/><use transform="matrix(0.05,0,0,0.05,103.85000000000001,0)" xlink:href="#aL"/><use transform="matrix(0.05,0,0,0.05,113.85000000000001,0)" xlink:href="#aH"/><use transform="matrix(0.05,0,0,0.05,122.85000000000001,0)" xlink:href="#aM"/></g><g id="w"><use transform="matrix(0.05,0,0,0.05,0,0)" xlink:href="#aP"/><use transform="matrix(0.05,0,0,0.05,10,0)" xlink:href="#aT"/><use transform="matrix(0.05,0,0,0.05,20,0)" xlink:href="#aZ"/><use transform="matrix(0.05,0,0,0.05,32.95,0)" xlink:href="#aV"/><use transform="matrix(0.05,0,0,0.05,42.95,0)" xlink:href="#aC"/><use transform="matrix(0.05,0,0,0.05,52.95,0)" xlink:href="#aK"/><use transform="matrix(0.05,0,0,0.05,56.900000000000006,0)" xlink:href="#aL"/><use transform="matrix(0.05,0,0,0.05,66.9,0)" xlink:href="#aH"/><use transform="matrix(0.05,0,0,0.05,75.9,0)" xlink:href="#aM"/><use transform="matrix(0.05,0,0,0.05,84.9,0)" xlink:href="#bd"/><use transform="matrix(0.05,0,0,0.05,90.85000000000001,0)" xlink:href="#aW"/></g><path d="M26 75v-336h71v23H56V52h41v23H26" id="bz"/><path d="M3 75V52h41v-290H3v-23h71V75H3" id="bA"/><g id="x"><use transform="matrix(0.05,0,0,0.05,0,0)" xlink:href="#aO"/><use transform="matrix(0.05,0,0,0.05,3.95,0)" xlink:href="#aD"/><use transform="matrix(0.05,0,0,0.05,12.949999999999998,0)" xlink:href="#aV"/><use transform="matrix(0.05,0,0,0.05,22.95,0)" xlink:href="#be"/><use transform="matrix(0.05,0,0,0.05,31.950000000000003,0)" xlink:href="#aG"/><use transform="matrix(0.05,0,0,0.05,41.95,0)" xlink:href="#aK"/><use transform="matrix(0.05,0,0,0.05,45.900000000000006,0)" xlink:href="#aO"/><use transform="matrix(0.05,0,0,0.05,49.85000000000001,0)" xlink:href="#aU"/><use transform="matrix(0.05,0,0,0.05,59.85,0)" xlink:href="#aV"/><use transform="matrix(0.05,0,0,0.05,69.85000000000001,0)" xlink:href="#aH"/><use transform="matrix(0.05,0,0,0.05,78.85000000000001,0)" xlink:href="#aN"/><use transform="matrix(0.05,0,0,0.05,88.85000000000001,0)" xlink:href="#aG"/><use transform="matrix(0.05,0,0,0.05,98.85000000000001,0)" xlink:href="#aO"/><use transform="matrix(0.05,0,0,0.05,102.80000000000001,0)" xlink:href="#aP"/><use transform="matrix(0.05,0,0,0.05,112.80000000000001,0)" xlink:href="#bb"/><use transform="matrix(0.05,0,0,0.05,118.75,0)" xlink:href="#aJ"/><use transform="matrix(0.05,0,0,0.05,130.75,0)" xlink:href="#aK"/><use transform="matrix(0.05,0,0,0.05,134.7,0)" xlink:href="#aL"/><use transform="matrix(0.05,0,0,0.05,144.7,0)" xlink:href="#aH"/><use transform="matrix(0.05,0,0,0.05,153.7,0)" xlink:href="#aM"/><use transform="matrix(0.05,0,0,0.05,162.7,0)" xlink:href="#bz"/><use transform="matrix(0.05,0,0,0.05,167.7,0)" xlink:href="#bA"/></g><g id="y"><use transform="matrix(0.05,0,0,0.05,0,0)" xlink:href="#aH"/><use transform="matrix(0.05,0,0,0.05,9,0)" xlink:href="#aN"/><use transform="matrix(0.05,0,0,0.05,19,0)" xlink:href="#aG"/><use transform="matrix(0.05,0,0,0.05,29,0)" xlink:href="#aO"/><use transform="matrix(0.05,0,0,0.05,32.95,0)" xlink:href="#aP"/><use transform="matrix(0.05,0,0,0.05,42.95,0)" xlink:href="#bd"/><use transform="matrix(0.05,0,0,0.05,48.900000000000006,0)" xlink:href="#aW"/></g><path d="M185-189c-5-48-123-54-124 2 14 75 158 14 163 119 3 78-121 87-175 55-17-10-28-26-33-46l33-7c5 56 141 63 141-1 0-78-155-14-162-118-5-82 145-84 179-34 5 7 8 16 11 25" id="bB"/><g id="z"><use transform="matrix(0.05,0,0,0.05,0,0)" xlink:href="#aH"/><use transform="matrix(0.05,0,0,0.05,9,0)" xlink:href="#aN"/><use transform="matrix(0.05,0,0,0.05,19,0)" xlink:href="#aG"/><use transform="matrix(0.05,0,0,0.05,29,0)" xlink:href="#aO"/><use transform="matrix(0.05,0,0,0.05,32.95,0)" xlink:href="#aP"/><use transform="matrix(0.05,0,0,0.05,42.95,0)" xlink:href="#aV"/><use transform="matrix(0.05,0,0,0.05,52.95,0)" xlink:href="#aE"/><use transform="matrix(0.05,0,0,0.05,57.95,0)" xlink:href="#aL"/><use transform="matrix(0.05,0,0,0.05,67.95,0)" xlink:href="#aV"/><use transform="matrix(0.05,0,0,0.05,77.95,0)" xlink:href="#aR"/><use transform="matrix(0.05,0,0,0.05,82.95,0)" xlink:href="#aO"/><use transform="matrix(0.05,0,0,0.05,86.9,0)" xlink:href="#aK"/><use transform="matrix(0.05,0,0,0.05,90.85000000000001,0)" xlink:href="#aT"/><use transform="matrix(0.05,0,0,0.05,100.85000000000001,0)" xlink:href="#bb"/><use transform="matrix(0.05,0,0,0.05,106.80000000000001,0)" xlink:href="#bB"/><use transform="matrix(0.05,0,0,0.05,118.80000000000001,0)" xlink:href="#aE"/><use transform="matrix(0.05,0,0,0.05,123.80000000000001,0)" xlink:href="#aF"/><use transform="matrix(0.05,0,0,0.05,129.75,0)" xlink:href="#aO"/><use transform="matrix(0.05,0,0,0.05,133.7,0)" xlink:href="#aP"/><use transform="matrix(0.05,0,0,0.05,143.7,0)" xlink:href="#bf"/></g><g id="A"><use transform="matrix(0.05,0,0,0.05,0,0)" xlink:href="#aR"/><use transform="matrix(0.05,0,0,0.05,5,0)" xlink:href="#aO"/><use transform="matrix(0.05,0,0,0.05,8.95,0)" xlink:href="#aK"/><use transform="matrix(0.05,0,0,0.05,12.899999999999999,0)" xlink:href="#aT"/><use transform="matrix(0.05,0,0,0.05,22.9,0)" xlink:href="#aP"/><use transform="matrix(0.05,0,0,0.05,32.9,0)" xlink:href="#aG"/><use transform="matrix(0.05,0,0,0.05,42.9,0)" xlink:href="#aS"/><use transform="matrix(0.05,0,0,0.05,57.85,0)" xlink:href="#aT"/><use transform="matrix(0.05,0,0,0.05,67.85,0)" xlink:href="#bd"/><use transform="matrix(0.05,0,0,0.05,73.8,0)" xlink:href="#aW"/></g><g id="B"><use transform="matrix(0.05,0,0,0.05,0,0)" xlink:href="#aH"/><use transform="matrix(0.05,0,0,0.05,9,0)" xlink:href="#aN"/><use transform="matrix(0.05,0,0,0.05,19,0)" xlink:href="#aG"/><use transform="matrix(0.05,0,0,0.05,29,0)" xlink:href="#aO"/><use transform="matrix(0.05,0,0,0.05,32.95,0)" xlink:href="#aP"/><use transform="matrix(0.05,0,0,0.05,42.95,0)" xlink:href="#aV"/><use transform="matrix(0.05,0,0,0.05,52.95,0)" xlink:href="#aR"/><use transform="matrix(0.05,0,0,0.05,57.95,0)" xlink:href="#aF"/><use transform="matrix(0.05,0,0,0.05,63.900000000000006,0)" xlink:href="#aL"/><use transform="matrix(0.05,0,0,0.05,73.9,0)" xlink:href="#aS"/><use transform="matrix(0.05,0,0,0.05,88.85000000000001,0)" xlink:href="#aV"/><use transform="matrix(0.05,0,0,0.05,98.85000000000001,0)" xlink:href="#aR"/><use transform="matrix(0.05,0,0,0.05,103.85000000000001,0)" xlink:href="#aO"/><use transform="matrix(0.05,0,0,0.05,107.80000000000001,0)" xlink:href="#aK"/><use transform="matrix(0.05,0,0,0.05,111.75,0)" xlink:href="#aT"/><use transform="matrix(0.05,0,0,0.05,121.75,0)" xlink:href="#bb"/><use transform="matrix(0.05,0,0,0.05,127.7,0)" xlink:href="#bB"/><use transform="matrix(0.05,0,0,0.05,139.70000000000002,0)" xlink:href="#aE"/><use transform="matrix(0.05,0,0,0.05,144.70000000000002,0)" xlink:href="#aF"/><use transform="matrix(0.05,0,0,0.05,150.65,0)" xlink:href="#aO"/><use transform="matrix(0.05,0,0,0.05,154.6,0)" xlink:href="#aP"/><use transform="matrix(0.05,0,0,0.05,164.6,0)" xlink:href="#bf"/></g><g id="C"><use transform="matrix(0.05,0,0,0.05,0,0)" xlink:href="#aK"/><use transform="matrix(0.05,0,0,0.05,3.95,0)" xlink:href="#aG"/><use transform="matrix(0.05,0,0,0.05,13.949999999999998,0)" xlink:href="#aD"/><use transform="matrix(0.05,0,0,0.05,22.95,0)" xlink:href="#aE"/><use transform="matrix(0.05,0,0,0.05,27.950000000000003,0)" xlink:href="#aV"/><use transform="matrix(0.05,0,0,0.05,37.95,0)" xlink:href="#aC"/><use transform="matrix(0.05,0,0,0.05,47.95,0)" xlink:href="#aK"/><use transform="matrix(0.05,0,0,0.05,51.900000000000006,0)" xlink:href="#aL"/><use transform="matrix(0.05,0,0,0.05,61.900000000000006,0)" xlink:href="#aH"/><use transform="matrix(0.05,0,0,0.05,70.9,0)" xlink:href="#aM"/><use transform="matrix(0.05,0,0,0.05,79.9,0)" xlink:href="#bb"/><use transform="matrix(0.05,0,0,0.05,85.85000000000001,0)" xlink:href="#bd"/><use transform="matrix(0.05,0,0,0.05,91.80000000000001,0)" xlink:href="#aW"/></g><g id="D"><use transform="matrix(0.05,0,0,0.05,0,0)" xlink:href="#aJ"/><use transform="matrix(0.05,0,0,0.05,12,0)" xlink:href="#aK"/><use transform="matrix(0.05,0,0,0.05,15.949999999999998,0)" xlink:href="#aL"/><use transform="matrix(0.05,0,0,0.05,25.950000000000003,0)" xlink:href="#aH"/><use transform="matrix(0.05,0,0,0.05,34.95,0)" xlink:href="#aM"/></g><path d="M27 0v-27h64v-190l-56 39v-29l58-41h29v221h61V0H27" id="bC"/><path d="M33 0v-38h34V0H33" id="bD"/><path d="M80-196l47-18 7 23-49 13 32 44-20 13-27-46-27 45-21-12 33-44-49-13 8-23 47 19-2-53h23" id="bE"/><g id="E"><use transform="matrix(0.05,0,0,0.05,0,0)" xlink:href="#bC"/><use transform="matrix(0.05,0,0,0.05,10,0)" xlink:href="#bD"/><use transform="matrix(0.05,0,0,0.05,15,0)" xlink:href="#bD"/><use transform="matrix(0.05,0,0,0.05,20,0)" xlink:href="#bE"/></g><g id="F"><use transform="matrix(0.05,0,0,0.05,0,0)" xlink:href="#bC"/><use transform="matrix(0.05,0,0,0.05,10,0)" xlink:href="#bD"/><use transform="matrix(0.05,0,0,0.05,15,0)" xlink:href="#bD"/><use transform="matrix(0.05,0,0,0.05,20,0)" xlink:href="#bC"/></g><g id="G"><use transform="matrix(0.05,0,0,0.05,0,0)" xlink:href="#aJ"/><use transform="matrix(0.05,0,0,0.05,12,0)" xlink:href="#aK"/><use transform="matrix(0.05,0,0,0.05,15.949999999999998,0)" xlink:href="#aL"/><use transform="matrix(0.05,0,0,0.05,25.950000000000003,0)" xlink:href="#aH"/><use transform="matrix(0.05,0,0,0.05,34.95,0)" xlink:href="#aM"/></g><path d="M141 0L90-78 38 0H4l68-98-65-92h35l48 74 47-74h35l-64 92 68 98h-35" id="bF"/><g id="H"><use transform="matrix(0.05,0,0,0.05,0,0)" xlink:href="#aO"/><use transform="matrix(0.05,0,0,0.05,3.95,0)" xlink:href="#aP"/><use transform="matrix(0.05,0,0,0.05,13.949999999999998,0)" xlink:href="#aU"/><use transform="matrix(0.05,0,0,0.05,23.95,0)" xlink:href="#aT"/><use transform="matrix(0.05,0,0,0.05,33.95,0)" xlink:href="#bF"/><use transform="matrix(0.05,0,0,0.05,42.95,0)" xlink:href="#aW"/></g><g id="I"><use transform="matrix(0.05,0,0,0.05,0,0)" xlink:href="#aO"/><use transform="matrix(0.05,0,0,0.05,3.95,0)" xlink:href="#aP"/><use transform="matrix(0.05,0,0,0.05,13.949999999999998,0)" xlink:href="#aE"/></g><g id="J"><use transform="matrix(0.05,0,0,0.05,0,0)" xlink:href="#aN"/><use transform="matrix(0.05,0,0,0.05,10,0)" xlink:href="#aG"/><use transform="matrix(0.05,0,0,0.05,20,0)" xlink:href="#aD"/><use transform="matrix(0.05,0,0,0.05,29,0)" xlink:href="#aN"/><use transform="matrix(0.05,0,0,0.05,39,0)" xlink:href="#aW"/></g><g id="K"><use transform="matrix(0.05,0,0,0.05,0,0)" xlink:href="#bB"/><use transform="matrix(0.05,0,0,0.05,12,0)" xlink:href="#aE"/><use transform="matrix(0.05,0,0,0.05,17,0)" xlink:href="#aF"/><use transform="matrix(0.05,0,0,0.05,22.95,0)" xlink:href="#aO"/><use transform="matrix(0.05,0,0,0.05,26.899999999999995,0)" xlink:href="#aP"/><use transform="matrix(0.05,0,0,0.05,36.9,0)" xlink:href="#bf"/></g><g id="L"><use transform="matrix(0.05,0,0,0.05,0,0)" xlink:href="#aE"/><use transform="matrix(0.05,0,0,0.05,5,0)" xlink:href="#aF"/><use transform="matrix(0.05,0,0,0.05,10.95,0)" xlink:href="#aG"/><use transform="matrix(0.05,0,0,0.05,20.95,0)" xlink:href="#aP"/><use transform="matrix(0.05,0,0,0.05,30.950000000000003,0)" xlink:href="#aD"/><use transform="matrix(0.05,0,0,0.05,39.95,0)" xlink:href="#aG"/><use transform="matrix(0.05,0,0,0.05,49.95,0)" xlink:href="#aH"/><use transform="matrix(0.05,0,0,0.05,58.95,0)" xlink:href="#aE"/><use transform="matrix(0.05,0,0,0.05,63.95,0)" xlink:href="#aO"/><use transform="matrix(0.05,0,0,0.05,67.9,0)" xlink:href="#aL"/><use transform="matrix(0.05,0,0,0.05,77.9,0)" xlink:href="#aP"/><use transform="matrix(0.05,0,0,0.05,87.9,0)" xlink:href="#aD"/><use transform="matrix(0.05,0,0,0.05,96.9,0)" xlink:href="#aW"/></g><g id="M"><use transform="matrix(0.05,0,0,0.05,0,0)" xlink:href="#aX"/><use transform="matrix(0.05,0,0,0.05,10,0)" xlink:href="#aO"/><use transform="matrix(0.05,0,0,0.05,13.949999999999998,0)" xlink:href="#aD"/><use transform="matrix(0.05,0,0,0.05,22.95,0)" xlink:href="#aE"/><use transform="matrix(0.05,0,0,0.05,27.950000000000003,0)" xlink:href="#aA"/><use transform="matrix(0.05,0,0,0.05,38.45,0)" xlink:href="#bc"/><use transform="matrix(0.05,0,0,0.05,48.75000000000001,0)" xlink:href="#aF"/><use transform="matrix(0.05,0,0,0.05,54.70000000000002,0)" xlink:href="#aG"/><use transform="matrix(0.05,0,0,0.05,64.70000000000002,0)" xlink:href="#aP"/><use transform="matrix(0.05,0,0,0.05,74.70000000000002,0)" xlink:href="#aD"/><use transform="matrix(0.05,0,0,0.05,83.70000000000002,0)" xlink:href="#aG"/><use transform="matrix(0.05,0,0,0.05,93.70000000000002,0)" xlink:href="#aH"/><use transform="matrix(0.05,0,0,0.05,102.7,0)" xlink:href="#aE"/><use transform="matrix(0.05,0,0,0.05,107.7,0)" xlink:href="#aO"/><use transform="matrix(0.05,0,0,0.05,111.65000000000003,0)" xlink:href="#aL"/><use transform="matrix(0.05,0,0,0.05,121.65000000000003,0)" xlink:href="#aP"/><use transform="matrix(0.05,0,0,0.05,131.65000000000003,0)" xlink:href="#aI"/></g><g id="N"><use transform="matrix(0.05,0,0,0.05,0,0)" xlink:href="#aE"/><use transform="matrix(0.05,0,0,0.05,5,0)" xlink:href="#aO"/><use transform="matrix(0.05,0,0,0.05,8.95,0)" xlink:href="#aS"/><use transform="matrix(0.05,0,0,0.05,23.9,0)" xlink:href="#aT"/><use transform="matrix(0.05,0,0,0.05,33.9,0)" xlink:href="#aD"/><use transform="matrix(0.05,0,0,0.05,42.9,0)" xlink:href="#aE"/><use transform="matrix(0.05,0,0,0.05,47.9,0)" xlink:href="#aG"/><use transform="matrix(0.05,0,0,0.05,57.900000000000006,0)" xlink:href="#aS"/><use transform="matrix(0.05,0,0,0.05,72.85,0)" xlink:href="#aY"/><use transform="matrix(0.05,0,0,0.05,82.85,0)" xlink:href="#aW"/></g><g id="O"><use transform="matrix(0.05,0,0,0.05,0,0)" xlink:href="#bc"/><use transform="matrix(0.05,0,0,0.05,10.3,0)" xlink:href="#aO"/><use transform="matrix(0.05,0,0,0.05,14.25,0)" xlink:href="#aS"/><use transform="matrix(0.05,0,0,0.05,29.200000000000003,0)" xlink:href="#aT"/></g><g id="P"><use transform="matrix(0.05,0,0,0.05,0,0)" xlink:href="#aY"/><use transform="matrix(0.05,0,0,0.05,10,0)" xlink:href="#aF"/><use transform="matrix(0.05,0,0,0.05,15.949999999999998,0)" xlink:href="#aT"/><use transform="matrix(0.05,0,0,0.05,25.950000000000003,0)" xlink:href="#be"/><use transform="matrix(0.05,0,0,0.05,34.95,0)" xlink:href="#aO"/><use transform="matrix(0.05,0,0,0.05,38.900000000000006,0)" xlink:href="#aL"/><use transform="matrix(0.05,0,0,0.05,48.900000000000006,0)" xlink:href="#aQ"/><use transform="matrix(0.05,0,0,0.05,58.900000000000006,0)" xlink:href="#aD"/><use transform="matrix(0.05,0,0,0.05,67.9,0)" xlink:href="#aV"/><use transform="matrix(0.05,0,0,0.05,77.9,0)" xlink:href="#aN"/><use transform="matrix(0.05,0,0,0.05,87.9,0)" xlink:href="#aG"/><use transform="matrix(0.05,0,0,0.05,97.9,0)" xlink:href="#aD"/><use transform="matrix(0.05,0,0,0.05,106.9,0)" xlink:href="#aN"/><use transform="matrix(0.05,0,0,0.05,116.9,0)" xlink:href="#aW"/></g><g id="Q"><use transform="matrix(0.05,0,0,0.05,0,0)" xlink:href="#aP"/><use transform="matrix(0.05,0,0,0.05,10,0)" xlink:href="#aL"/><use transform="matrix(0.05,0,0,0.05,20,0)" xlink:href="#aP"/><use transform="matrix(0.05,0,0,0.05,30,0)" xlink:href="#aH"/><use transform="matrix(0.05,0,0,0.05,39,0)" xlink:href="#aT"/><use transform="matrix(0.05,0,0,0.05,49,0)" xlink:href="#aW"/></g><g id="R"><use transform="matrix(0.05,0,0,0.05,0,0)" xlink:href="#bB"/><use transform="matrix(0.05,0,0,0.05,12,0)" xlink:href="#aE"/><use transform="matrix(0.05,0,0,0.05,17,0)" xlink:href="#aF"/><use transform="matrix(0.05,0,0,0.05,22.95,0)" xlink:href="#aO"/><use transform="matrix(0.05,0,0,0.05,26.899999999999995,0)" xlink:href="#aP"/><use transform="matrix(0.05,0,0,0.05,36.9,0)" xlink:href="#bf"/></g><g id="S"><use transform="matrix(0.05,0,0,0.05,0,0)" xlink:href="#aH"/><use transform="matrix(0.05,0,0,0.05,9,0)" xlink:href="#aG"/><use transform="matrix(0.05,0,0,0.05,19,0)" xlink:href="#aK"/><use transform="matrix(0.05,0,0,0.05,22.95,0)" xlink:href="#aH"/><use transform="matrix(0.05,0,0,0.05,31.950000000000003,0)" xlink:href="#aQ"/><use transform="matrix(0.05,0,0,0.05,41.95,0)" xlink:href="#aK"/><use transform="matrix(0.05,0,0,0.05,45.900000000000006,0)" xlink:href="#aG"/><use transform="matrix(0.05,0,0,0.05,55.900000000000006,0)" xlink:href="#aE"/><use transform="matrix(0.05,0,0,0.05,60.900000000000006,0)" xlink:href="#aT"/><use transform="matrix(0.05,0,0,0.05,70.9,0)" xlink:href="#aV"/><use transform="matrix(0.05,0,0,0.05,80.9,0)" xlink:href="#aN"/><use transform="matrix(0.05,0,0,0.05,90.9,0)" xlink:href="#aG"/><use transform="matrix(0.05,0,0,0.05,100.9,0)" xlink:href="#aD"/><use transform="matrix(0.05,0,0,0.05,109.9,0)" xlink:href="#aN"/><use transform="matrix(0.05,0,0,0.05,119.9,0)" xlink:href="#bb"/><use transform="matrix(0.05,0,0,0.05,125.85000000000001,0)" xlink:href="#bd"/><use transform="matrix(0.05,0,0,0.05,131.8,0)" xlink:href="#aW"/></g><g id="T"><use transform="matrix(0.05,0,0,0.05,0,0)" xlink:href="#bf"/><use transform="matrix(0.05,0,0,0.05,10,0)" xlink:href="#aT"/><use transform="matrix(0.05,0,0,0.05,20,0)" xlink:href="#aE"/><use transform="matrix(0.05,0,0,0.05,25,0)" xlink:href="#aV"/><use transform="matrix(0.05,0,0,0.05,35,0)" xlink:href="#aD"/><use transform="matrix(0.05,0,0,0.05,44,0)" xlink:href="#aE"/><use transform="matrix(0.05,0,0,0.05,49,0)" xlink:href="#aF"/><use transform="matrix(0.05,0,0,0.05,54.95,0)" xlink:href="#aO"/><use transform="matrix(0.05,0,0,0.05,58.900000000000006,0)" xlink:href="#aP"/><use transform="matrix(0.05,0,0,0.05,68.9,0)" xlink:href="#bf"/><use transform="matrix(0.05,0,0,0.05,78.9,0)" xlink:href="#aV"/><use transform="matrix(0.05,0,0,0.05,88.9,0)" xlink:href="#aE"/><use transform="matrix(0.05,0,0,0.05,93.9,0)" xlink:href="#aL"/><use transform="matrix(0.05,0,0,0.05,103.9,0)" xlink:href="#aV"/><use transform="matrix(0.05,0,0,0.05,113.9,0)" xlink:href="#aN"/><use transform="matrix(0.05,0,0,0.05,123.9,0)" xlink:href="#aG"/><use transform="matrix(0.05,0,0,0.05,133.9,0)" xlink:href="#aD"/><use transform="matrix(0.05,0,0,0.05,142.9,0)" xlink:href="#aN"/><use transform="matrix(0.05,0,0,0.05,152.9,0)" xlink:href="#bb"/><use transform="matrix(0.05,0,0,0.05,158.85,0)" xlink:href="#bd"/><use transform="matrix(0.05,0,0,0.05,164.79999999999998,0)" xlink:href="#aW"/></g><g id="U"><use transform="matrix(0.05,0,0,0.05,0,0)" xlink:href="#bc"/><use transform="matrix(0.05,0,0,0.05,10.3,0)" xlink:href="#aF"/><use transform="matrix(0.05,0,0,0.05,16.25,0)" xlink:href="#aG"/><use transform="matrix(0.05,0,0,0.05,26.25,0)" xlink:href="#aP"/><use transform="matrix(0.05,0,0,0.05,36.25,0)" xlink:href="#aD"/><use transform="matrix(0.05,0,0,0.05,45.25,0)" xlink:href="#aG"/><use transform="matrix(0.05,0,0,0.05,55.25,0)" xlink:href="#aH"/><use transform="matrix(0.05,0,0,0.05,64.25,0)" xlink:href="#aE"/><use transform="matrix(0.05,0,0,0.05,69.25,0)" xlink:href="#aO"/><use transform="matrix(0.05,0,0,0.05,73.2,0)" xlink:href="#aL"/><use transform="matrix(0.05,0,0,0.05,83.2,0)" xlink:href="#aP"/></g><g id="V"><use transform="matrix(0.05,0,0,0.05,0,0)" xlink:href="#aO"/><use transform="matrix(0.05,0,0,0.05,3.95,0)" xlink:href="#aU"/><use transform="matrix(0.05,0,0,0.05,13.949999999999998,0)" xlink:href="#aW"/></g><g id="W"><use transform="matrix(0.05,0,0,0.05,0,0)" xlink:href="#aU"/><use transform="matrix(0.05,0,0,0.05,10,0)" xlink:href="#aG"/><use transform="matrix(0.05,0,0,0.05,20,0)" xlink:href="#aE"/><use transform="matrix(0.05,0,0,0.05,25,0)" xlink:href="#aG"/><use transform="matrix(0.05,0,0,0.05,35,0)" xlink:href="#aW"/></g><path d="M232-93c-1 65-40 97-104 97C67 4 28-28 28-90v-158h33c8 89-33 224 67 224 102 0 64-133 71-224h33v155" id="bG"/><g id="X"><use transform="matrix(0.05,0,0,0.05,0,0)" xlink:href="#bG"/><use transform="matrix(0.05,0,0,0.05,12.950000000000001,0)" xlink:href="#aP"/><use transform="matrix(0.05,0,0,0.05,22.950000000000003,0)" xlink:href="#aH"/><use transform="matrix(0.05,0,0,0.05,31.950000000000003,0)" xlink:href="#aL"/><use transform="matrix(0.05,0,0,0.05,41.95,0)" xlink:href="#aP"/><use transform="matrix(0.05,0,0,0.05,51.95,0)" xlink:href="#aR"/><use transform="matrix(0.05,0,0,0.05,56.95,0)" xlink:href="#aO"/><use transform="matrix(0.05,0,0,0.05,60.900000000000006,0)" xlink:href="#aF"/><use transform="matrix(0.05,0,0,0.05,66.85000000000001,0)" xlink:href="#aS"/><use transform="matrix(0.05,0,0,0.05,81.80000000000001,0)" xlink:href="#aT"/><use transform="matrix(0.05,0,0,0.05,91.80000000000001,0)" xlink:href="#aU"/></g><g id="Y"><use transform="matrix(0.05,0,0,0.05,0,0)" xlink:href="#aE"/><use transform="matrix(0.05,0,0,0.05,5,0)" xlink:href="#aF"/><use transform="matrix(0.05,0,0,0.05,10.95,0)" xlink:href="#aG"/><use transform="matrix(0.05,0,0,0.05,20.95,0)" xlink:href="#aP"/><use transform="matrix(0.05,0,0,0.05,30.950000000000003,0)" xlink:href="#aD"/><use transform="matrix(0.05,0,0,0.05,39.95,0)" xlink:href="#aG"/><use transform="matrix(0.05,0,0,0.05,49.95,0)" xlink:href="#aH"/><use transform="matrix(0.05,0,0,0.05,58.95,0)" xlink:href="#aE"/><use transform="matrix(0.05,0,0,0.05,63.95,0)" xlink:href="#aO"/><use transform="matrix(0.05,0,0,0.05,67.9,0)" xlink:href="#aL"/><use transform="matrix(0.05,0,0,0.05,77.9,0)" xlink:href="#aP"/><use transform="matrix(0.05,0,0,0.05,87.9,0)" xlink:href="#aD"/></g><path d="M240 0l2-218c-23 76-54 145-80 218h-23L58-218 59 0H30v-248h44l77 211c21-75 51-140 76-211h43V0h-30" id="bH"/><g id="Z"><use transform="matrix(0.05,0,0,0.05,0,0)" xlink:href="#bH"/><use transform="matrix(0.05,0,0,0.05,14.950000000000001,0)" xlink:href="#aO"/><use transform="matrix(0.05,0,0,0.05,18.900000000000002,0)" xlink:href="#aP"/><use transform="matrix(0.05,0,0,0.05,28.900000000000002,0)" xlink:href="#aT"/><use transform="matrix(0.05,0,0,0.05,38.900000000000006,0)" xlink:href="#aU"/></g><g id="aa"><use transform="matrix(0.05,0,0,0.05,0,0)" xlink:href="#bH"/><use transform="matrix(0.05,0,0,0.05,14.950000000000001,0)" xlink:href="#aO"/><use transform="matrix(0.05,0,0,0.05,18.900000000000002,0)" xlink:href="#aP"/><use transform="matrix(0.05,0,0,0.05,28.900000000000002,0)" xlink:href="#aT"/><use transform="matrix(0.05,0,0,0.05,38.900000000000006,0)" xlink:href="#aF"/></g><g id="ab"><use transform="matrix(0.05,0,0,0.05,0,0)" xlink:href="#aD"/><use transform="matrix(0.05,0,0,0.05,9,0)" xlink:href="#aT"/><use transform="matrix(0.05,0,0,0.05,19,0)" xlink:href="#aK"/><use transform="matrix(0.05,0,0,0.05,22.95,0)" xlink:href="#aT"/><use transform="matrix(0.05,0,0,0.05,32.95,0)" xlink:href="#aH"/><use transform="matrix(0.05,0,0,0.05,41.95,0)" xlink:href="#aE"/><use transform="matrix(0.05,0,0,0.05,46.95,0)" xlink:href="#aV"/><use transform="matrix(0.05,0,0,0.05,56.95,0)" xlink:href="#aE"/><use transform="matrix(0.05,0,0,0.05,61.95,0)" xlink:href="#aF"/><use transform="matrix(0.05,0,0,0.05,67.9,0)" xlink:href="#aG"/><use transform="matrix(0.05,0,0,0.05,77.9,0)" xlink:href="#aP"/><use transform="matrix(0.05,0,0,0.05,87.9,0)" xlink:href="#aD"/><use transform="matrix(0.05,0,0,0.05,96.9,0)" xlink:href="#aG"/><use transform="matrix(0.05,0,0,0.05,106.9,0)" xlink:href="#aH"/><use transform="matrix(0.05,0,0,0.05,115.9,0)" xlink:href="#aE"/><use transform="matrix(0.05,0,0,0.05,120.9,0)" xlink:href="#aO"/><use transform="matrix(0.05,0,0,0.05,124.85000000000001,0)" xlink:href="#aL"/><use transform="matrix(0.05,0,0,0.05,134.85000000000002,0)" xlink:href="#aP"/><use transform="matrix(0.05,0,0,0.05,144.85000000000002,0)" xlink:href="#aD"/><use transform="matrix(0.05,0,0,0.05,153.85000000000002,0)" xlink:href="#aV"/><use transform="matrix(0.05,0,0,0.05,163.85000000000002,0)" xlink:href="#aE"/><use transform="matrix(0.05,0,0,0.05,168.85000000000002,0)" xlink:href="#aL"/><use transform="matrix(0.05,0,0,0.05,178.85000000000002,0)" xlink:href="#aV"/><use transform="matrix(0.05,0,0,0.05,188.85000000000002,0)" xlink:href="#aS"/><use transform="matrix(0.05,0,0,0.05,203.8,0)" xlink:href="#aO"/><use transform="matrix(0.05,0,0,0.05,207.75,0)" xlink:href="#aP"/><use transform="matrix(0.05,0,0,0.05,217.75,0)" xlink:href="#aT"/><use transform="matrix(0.05,0,0,0.05,227.75,0)" xlink:href="#bb"/><use transform="matrix(0.05,0,0,0.05,233.69999999999996,0)" xlink:href="#bd"/><use transform="matrix(0.05,0,0,0.05,239.64999999999998,0)" xlink:href="#aW"/></g><g id="ac"><use transform="matrix(0.05,0,0,0.05,0,0)" xlink:href="#aX"/><use transform="matrix(0.05,0,0,0.05,10,0)" xlink:href="#aO"/><use transform="matrix(0.05,0,0,0.05,13.949999999999998,0)" xlink:href="#aD"/><use transform="matrix(0.05,0,0,0.05,22.95,0)" xlink:href="#aE"/><use transform="matrix(0.05,0,0,0.05,27.950000000000003,0)" xlink:href="#aA"/><use transform="matrix(0.05,0,0,0.05,38.45,0)" xlink:href="#bc"/><use transform="matrix(0.05,0,0,0.05,48.75000000000001,0)" xlink:href="#aF"/><use transform="matrix(0.05,0,0,0.05,54.70000000000002,0)" xlink:href="#aG"/><use transform="matrix(0.05,0,0,0.05,64.70000000000002,0)" xlink:href="#aP"/><use transform="matrix(0.05,0,0,0.05,74.70000000000002,0)" xlink:href="#aD"/><use transform="matrix(0.05,0,0,0.05,83.70000000000002,0)" xlink:href="#aG"/><use transform="matrix(0.05,0,0,0.05,93.70000000000002,0)" xlink:href="#aH"/><use transform="matrix(0.05,0,0,0.05,102.7,0)" xlink:href="#aE"/><use transform="matrix(0.05,0,0,0.05,107.7,0)" xlink:href="#aO"/><use transform="matrix(0.05,0,0,0.05,111.65000000000003,0)" xlink:href="#aL"/><use transform="matrix(0.05,0,0,0.05,121.65000000000003,0)" xlink:href="#aP"/><use transform="matrix(0.05,0,0,0.05,131.65000000000003,0)" xlink:href="#aI"/></g><g id="ad"><use transform="matrix(0.05,0,0,0.05,0,0)" xlink:href="#aJ"/><use transform="matrix(0.05,0,0,0.05,12,0)" xlink:href="#aK"/><use transform="matrix(0.05,0,0,0.05,15.949999999999998,0)" xlink:href="#aL"/><use transform="matrix(0.05,0,0,0.05,25.950000000000003,0)" xlink:href="#aH"/><use transform="matrix(0.05,0,0,0.05,34.95,0)" xlink:href="#aM"/><use transform="matrix(0.05,0,0,0.05,43.95,0)" xlink:href="#aH"/><use transform="matrix(0.05,0,0,0.05,52.95,0)" xlink:href="#aN"/><use transform="matrix(0.05,0,0,0.05,62.95,0)" xlink:href="#aG"/><use transform="matrix(0.05,0,0,0.05,72.95,0)" xlink:href="#aO"/><use transform="matrix(0.05,0,0,0.05,76.9,0)" xlink:href="#aP"/><use transform="matrix(0.05,0,0,0.05,86.9,0)" xlink:href="#bG"/><use transform="matrix(0.05,0,0,0.05,99.85000000000001,0)" xlink:href="#aD"/><use transform="matrix(0.05,0,0,0.05,108.85000000000001,0)" xlink:href="#aT"/><use transform="matrix(0.05,0,0,0.05,118.85000000000001,0)" xlink:href="#aF"/></g><g id="ae"><use transform="matrix(0.05,0,0,0.05,0,0)" xlink:href="#aS"/><use transform="matrix(0.05,0,0,0.05,14.950000000000001,0)" xlink:href="#aO"/><use transform="matrix(0.05,0,0,0.05,18.900000000000002,0)" xlink:href="#aP"/><use transform="matrix(0.05,0,0,0.05,28.900000000000002,0)" xlink:href="#aT"/><use transform="matrix(0.05,0,0,0.05,38.900000000000006,0)" xlink:href="#aF"/><use transform="matrix(0.05,0,0,0.05,44.85000000000001,0)" xlink:href="#aV"/><use transform="matrix(0.05,0,0,0.05,54.85,0)" xlink:href="#aN"/><use transform="matrix(0.05,0,0,0.05,64.85000000000001,0)" xlink:href="#aL"/><use transform="matrix(0.05,0,0,0.05,74.85000000000001,0)" xlink:href="#aD"/><use transform="matrix(0.05,0,0,0.05,83.85000000000001,0)" xlink:href="#aE"/><use transform="matrix(0.05,0,0,0.05,88.85000000000001,0)" xlink:href="#aW"/></g><g id="af"><use transform="matrix(0.05,0,0,0.05,0,0)" xlink:href="#aS"/><use transform="matrix(0.05,0,0,0.05,14.950000000000001,0)" xlink:href="#aO"/><use transform="matrix(0.05,0,0,0.05,18.900000000000002,0)" xlink:href="#aP"/><use transform="matrix(0.05,0,0,0.05,28.900000000000002,0)" xlink:href="#aT"/><use transform="matrix(0.05,0,0,0.05,38.900000000000006,0)" xlink:href="#aF"/><use transform="matrix(0.05,0,0,0.05,44.85000000000001,0)" xlink:href="#aV"/><use transform="matrix(0.05,0,0,0.05,54.85,0)" xlink:href="#aY"/><use transform="matrix(0.05,0,0,0.05,64.85000000000001,0)" xlink:href="#aL"/><use transform="matrix(0.05,0,0,0.05,74.85000000000001,0)" xlink:href="#aF"/><use transform="matrix(0.05,0,0,0.05,80.80000000000001,0)" xlink:href="#aE"/><use transform="matrix(0.05,0,0,0.05,85.80000000000001,0)" xlink:href="#aW"/></g><g id="ag"><use transform="matrix(0.05,0,0,0.05,0,0)" xlink:href="#aB"/><use transform="matrix(0.05,0,0,0.05,12,0)" xlink:href="#aD"/><use transform="matrix(0.05,0,0,0.05,21,0)" xlink:href="#ba"/><use transform="matrix(0.05,0,0,0.05,30,0)" xlink:href="#aP"/><use transform="matrix(0.05,0,0,0.05,40,0)" xlink:href="#aH"/></g><path d="M233-177c-1 41-23 64-60 70L243 0h-38l-65-103H63V0H30v-248c88 3 205-21 203 71zM63-129c60-2 137 13 137-47 0-61-80-42-137-45v92" id="bI"/><path d="M30 0v-248h187v28H63v79h144v27H63v87h162V0H30" id="bJ"/><path d="M63-220v92h138v28H63V0H30v-248h175v28H63" id="bK"/><g id="ah"><use transform="matrix(0.05,0,0,0.05,0,0)" xlink:href="#bI"/><use transform="matrix(0.05,0,0,0.05,12.950000000000001,0)" xlink:href="#bJ"/><use transform="matrix(0.05,0,0,0.05,24.950000000000003,0)" xlink:href="#bB"/><use transform="matrix(0.05,0,0,0.05,36.95,0)" xlink:href="#bc"/><use transform="matrix(0.05,0,0,0.05,47.900000000000006,0)" xlink:href="#bK"/><use transform="matrix(0.05,0,0,0.05,58.85,0)" xlink:href="#aQ"/><use transform="matrix(0.05,0,0,0.05,68.85000000000001,0)" xlink:href="#aK"/></g><g id="ai"><use transform="matrix(0.05,0,0,0.05,0,0)" xlink:href="#aH"/><use transform="matrix(0.05,0,0,0.05,9,0)" xlink:href="#aG"/><use transform="matrix(0.05,0,0,0.05,19,0)" xlink:href="#aK"/><use transform="matrix(0.05,0,0,0.05,22.95,0)" xlink:href="#aK"/><use transform="matrix(0.05,0,0,0.05,26.899999999999995,0)" xlink:href="#aD"/></g><g id="aj"><use transform="matrix(0.05,0,0,0.05,0,0)" xlink:href="#bH"/><use transform="matrix(0.05,0,0,0.05,14.950000000000001,0)" xlink:href="#aO"/><use transform="matrix(0.05,0,0,0.05,18.900000000000002,0)" xlink:href="#aP"/><use transform="matrix(0.05,0,0,0.05,28.900000000000002,0)" xlink:href="#aT"/><use transform="matrix(0.05,0,0,0.05,38.900000000000006,0)" xlink:href="#aF"/></g><path d="M212-179c-10-28-35-45-73-45-59 0-87 40-87 99 0 60 29 101 89 101 43 0 62-24 78-52l27 14C228-24 195 4 139 4 59 4 22-46 18-125c-6-104 99-153 187-111 19 9 31 26 39 46" id="bL"/><g id="ak"><use transform="matrix(0.05,0,0,0.05,0,0)" xlink:href="#bL"/><use transform="matrix(0.05,0,0,0.05,12.950000000000001,0)" xlink:href="#aL"/><use transform="matrix(0.05,0,0,0.05,22.950000000000003,0)" xlink:href="#aS"/><use transform="matrix(0.05,0,0,0.05,37.900000000000006,0)" xlink:href="#aS"/><use transform="matrix(0.05,0,0,0.05,52.85,0)" xlink:href="#aQ"/><use transform="matrix(0.05,0,0,0.05,62.85,0)" xlink:href="#aP"/><use transform="matrix(0.05,0,0,0.05,72.85000000000001,0)" xlink:href="#aO"/><use transform="matrix(0.05,0,0,0.05,76.80000000000001,0)" xlink:href="#aH"/><use transform="matrix(0.05,0,0,0.05,85.80000000000001,0)" xlink:href="#aG"/><use transform="matrix(0.05,0,0,0.05,95.80000000000001,0)" xlink:href="#aE"/><use transform="matrix(0.05,0,0,0.05,100.80000000000001,0)" xlink:href="#aO"/><use transform="matrix(0.05,0,0,0.05,104.75,0)" xlink:href="#aL"/><use transform="matrix(0.05,0,0,0.05,114.75,0)" xlink:href="#aP"/></g><g id="al"><use transform="matrix(0.05,0,0,0.05,0,0)" xlink:href="#bH"/><use transform="matrix(0.05,0,0,0.05,14.950000000000001,0)" xlink:href="#aL"/><use transform="matrix(0.05,0,0,0.05,24.950000000000003,0)" xlink:href="#aU"/><use transform="matrix(0.05,0,0,0.05,34.95,0)" xlink:href="#aQ"/><use transform="matrix(0.05,0,0,0.05,44.95,0)" xlink:href="#aK"/><use transform="matrix(0.05,0,0,0.05,48.900000000000006,0)" xlink:href="#aT"/></g><g id="an"><use transform="matrix(0.05,0,0,0.05,0,0)" xlink:href="#aA"/><use transform="matrix(0.05,0,0,0.05,10.5,0)" xlink:href="#aA"/></g><g id="ao"><use transform="matrix(0.05,0,0,0.05,0,0)" xlink:href="#bI"/><use transform="matrix(0.05,0,0,0.05,12.950000000000001,0)" xlink:href="#bJ"/><use transform="matrix(0.05,0,0,0.05,24.950000000000003,0)" xlink:href="#bB"/><use transform="matrix(0.05,0,0,0.05,36.95,0)" xlink:href="#bc"/><use transform="matrix(0.05,0,0,0.05,47.900000000000006,0)" xlink:href="#bK"/><use transform="matrix(0.05,0,0,0.05,58.85,0)" xlink:href="#bG"/><use transform="matrix(0.05,0,0,0.05,71.80000000000001,0)" xlink:href="#aX"/><use transform="matrix(0.05,0,0,0.05,81.80000000000001,0)" xlink:href="#aX"/></g><g id="ap"><use transform="matrix(0.05,0,0,0.05,0,0)" xlink:href="#aI"/><use transform="matrix(0.05,0,0,0.05,10.5,0)" xlink:href="#aI"/></g><g id="aq"><use transform="matrix(0.05,0,0,0.05,0,0)" xlink:href="#aX"/><use transform="matrix(0.05,0,0,0.05,10,0)" xlink:href="#aL"/><use transform="matrix(0.05,0,0,0.05,20,0)" xlink:href="#aD"/></g><path d="M100-194c63 0 86 42 84 106H49c0 40 14 67 53 68 26 1 43-12 49-29l28 8c-11 28-37 45-77 45C44 4 14-33 15-96c1-61 26-98 85-98zm52 81c6-60-76-77-97-28-3 7-6 17-6 28h103zm-74-98c8-23 27-35 38-54h36v5l-58 49H78" id="bM"/><g id="ar"><use transform="matrix(0.05,0,0,0.05,0,0)" xlink:href="#aS"/><use transform="matrix(0.05,0,0,0.05,14.950000000000001,0)" xlink:href="#bM"/><use transform="matrix(0.05,0,0,0.05,24.950000000000003,0)" xlink:href="#aE"/><use transform="matrix(0.05,0,0,0.05,29.950000000000003,0)" xlink:href="#aL"/><use transform="matrix(0.05,0,0,0.05,39.95,0)" xlink:href="#aU"/><use transform="matrix(0.05,0,0,0.05,49.95,0)" xlink:href="#aL"/><use transform="matrix(0.05,0,0,0.05,59.95,0)" xlink:href="#aD"/></g><g id="as"><use transform="matrix(0.05,0,0,0.05,0,0)" xlink:href="#aD"/><use transform="matrix(0.05,0,0,0.05,9,0)" xlink:href="#aL"/><use transform="matrix(0.05,0,0,0.05,19,0)" xlink:href="#aP"/></g><g id="at"><use transform="matrix(0.05,0,0,0.05,0,0)" xlink:href="#aK"/><use transform="matrix(0.05,0,0,0.05,3.95,0)" xlink:href="#aK"/><use transform="matrix(0.05,0,0,0.05,7.9,0)" xlink:href="#aG"/><use transform="matrix(0.05,0,0,0.05,17.9,0)" xlink:href="#aS"/><use transform="matrix(0.05,0,0,0.05,32.85,0)" xlink:href="#aG"/><use transform="matrix(0.05,0,0,0.05,42.85,0)" xlink:href="#aU"/><use transform="matrix(0.05,0,0,0.05,52.85,0)" xlink:href="#aG"/><use transform="matrix(0.05,0,0,0.05,62.85,0)" xlink:href="#aD"/></g><use transform="matrix(0.05,0,0,0.05,0,0)" xlink:href="#aG" id="au"/><g id="av"><use transform="matrix(0.05,0,0,0.05,0,0)" xlink:href="#bG"/><use transform="matrix(0.05,0,0,0.05,12.950000000000001,0)" xlink:href="#bI"/><use transform="matrix(0.05,0,0,0.05,25.900000000000002,0)" xlink:href="#aX"/></g><path d="M141-36C126-15 110 5 73 4 37 3 15-17 15-53c-1-64 63-63 125-63 3-35-9-54-41-54-24 1-41 7-42 31l-33-3c5-37 33-52 76-52 45 0 72 20 72 64v82c-1 20 7 32 28 27v20c-31 9-61-2-59-35zM48-53c0 20 12 33 32 33 41-3 63-29 60-74-43 2-92-5-92 41zm25-158c8-23 27-35 38-54h36v5l-58 49H73" id="bN"/><g id="aw"><use transform="matrix(0.05,0,0,0.05,0,0)" xlink:href="#aY"/><use transform="matrix(0.05,0,0,0.05,10,0)" xlink:href="#aG"/><use transform="matrix(0.05,0,0,0.05,20,0)" xlink:href="#aF"/><use transform="matrix(0.05,0,0,0.05,25.950000000000003,0)" xlink:href="#bN"/><use transform="matrix(0.05,0,0,0.05,35.95,0)" xlink:href="#aS"/><use transform="matrix(0.05,0,0,0.05,50.900000000000006,0)" xlink:href="#aT"/><use transform="matrix(0.05,0,0,0.05,60.900000000000006,0)" xlink:href="#aE"/><use transform="matrix(0.05,0,0,0.05,65.9,0)" xlink:href="#aF"/><use transform="matrix(0.05,0,0,0.05,71.85000000000001,0)" xlink:href="#aL"/><use transform="matrix(0.05,0,0,0.05,81.85000000000001,0)" xlink:href="#aD"/></g><use transform="matrix(0.05,0,0,0.05,0,0)" xlink:href="#ba" id="ax"/><g id="ay"><use transform="matrix(0.05,0,0,0.05,0,0)" xlink:href="#aF"/><use transform="matrix(0.05,0,0,0.05,5.95,0)" xlink:href="#aT"/><use transform="matrix(0.05,0,0,0.05,15.949999999999998,0)" xlink:href="#aD"/><use transform="matrix(0.05,0,0,0.05,24.95,0)" xlink:href="#aY"/><use transform="matrix(0.05,0,0,0.05,34.95,0)" xlink:href="#aQ"/><use transform="matrix(0.05,0,0,0.05,44.95,0)" xlink:href="#aT"/><use transform="matrix(0.05,0,0,0.05,54.95,0)" xlink:href="#aD"/><use transform="matrix(0.05,0,0,0.05,63.95,0)" xlink:href="#aE"/><use transform="matrix(0.05,0,0,0.05,68.95,0)" xlink:href="#aG"/><use transform="matrix(0.05,0,0,0.05,78.95,0)" xlink:href="#aD"/></g><path d="M153-248C145-148 188 4 80 4 36 3 13-21 6-62l32-5c4 25 16 42 43 43 27 0 39-20 39-49v-147H72v-28h81" id="bO"/><path d="M140-251c81 0 123 46 123 126C263-46 219 4 140 4 59 4 17-45 17-125s42-126 123-126zm0 227c63 0 89-41 89-101s-29-99-89-99c-61 0-89 39-89 99S79-25 140-24" id="bP"/><path d="M190 0L58-211 59 0H30v-248h39L202-35l-2-213h31V0h-41" id="bQ"/><g id="az"><use transform="matrix(0.05,0,0,0.05,0,0)" xlink:href="#bO"/><use transform="matrix(0.05,0,0,0.05,9,0)" xlink:href="#bB"/><use transform="matrix(0.05,0,0,0.05,21,0)" xlink:href="#bP"/><use transform="matrix(0.05,0,0,0.05,35,0)" xlink:href="#bQ"/></g></defs></g></svg>